<svg width="24" height="24" viewBox="0 0 24 24" fill="none" xmlns="http://www.w3.org/2000/svg">
<g clip-path="url(#clip0)">
<path fill-rule="evenodd" clip-rule="evenodd" d="M16 14C16 13.4477 16.4477 13 17 13H23C23.5523 13 24 13.4477 24 14V20C24 20.5523 23.5523 21 23 21C22.4477 21 22 20.5523 22 20V15H17C16.4477 15 16 14.5523 16 14Z" fill="currentColor"/>
<path fill-rule="evenodd" clip-rule="evenodd" d="M23.7287 13.3152C24.1069 13.7177 24.0872 14.3506 23.6848 14.7288L19.0559 19.0783C17.8637 20.2672 16.3906 21.136 14.773 21.6038C13.1503 22.0732 11.4352 22.1239 9.78758 21.7511C8.14 21.3783 6.61371 20.5942 5.35111 19.472C4.08852 18.3498 3.13078 16.9261 2.56726 15.3336C2.38302 14.8129 2.65573 14.2415 3.17638 14.0573C3.69703 13.873 4.26845 14.1458 4.45269 14.6664C4.90351 15.9404 5.6697 17.0794 6.67977 17.9771C7.68985 18.8749 8.91089 19.5022 10.2289 19.8004C11.547 20.0986 12.9191 20.0581 14.2173 19.6826C15.5155 19.3071 16.6974 18.6089 17.6527 17.6531C17.6601 17.6457 17.6676 17.6384 17.6752 17.6312L22.3152 13.2712C22.7177 12.8931 23.3505 12.9127 23.7287 13.3152Z" fill="currentColor"/>
<path fill-rule="evenodd" clip-rule="evenodd" d="M8.51001 9.99765C8.51001 10.5499 8.06229 10.9977 7.51001 10.9977L1.51001 10.9977C0.957725 10.9977 0.51001 10.5499 0.51001 9.99765L0.510009 3.99765C0.510009 3.44537 0.957724 2.99765 1.51001 2.99765C2.06229 2.99765 2.51001 3.44537 2.51001 3.99765L2.51001 8.99765L7.51001 8.99765C8.06229 8.99765 8.51001 9.44537 8.51001 9.99765Z" fill="currentColor"/>
<path fill-rule="evenodd" clip-rule="evenodd" d="M0.781219 10.6824C0.403027 10.28 0.422716 9.64709 0.825195 9.2689L5.45406 4.91936C6.64623 3.73042 8.11936 2.86168 9.73692 2.3938C11.3596 1.92443 13.0748 1.87378 14.7224 2.24656C16.3699 2.61935 17.8962 3.40343 19.1588 4.52563C20.4214 5.64784 21.3792 7.07159 21.9427 8.66405C22.1269 9.1847 21.8542 9.75613 21.3336 9.94037C20.8129 10.1246 20.2415 9.8519 20.0573 9.33125C19.6064 8.05728 18.8402 6.91827 17.8302 6.02051C16.8201 5.12275 15.5991 4.49548 14.281 4.19725C12.9629 3.89903 11.5908 3.93955 10.2926 4.31505C8.99448 4.69054 7.81259 5.38877 6.85725 6.34458C6.84987 6.35197 6.84236 6.35925 6.83475 6.3664L2.19475 10.7264C1.79227 11.1046 1.15941 11.0849 0.781219 10.6824Z" fill="currentColor"/>
</g>
<defs>
<clipPath id="clip0">
<rect width="24" height="24" fill="white"/>
</clipPath>
</defs>
</svg>
