<svg width="24" height="24" viewBox="0 0 24 24" fill="none" xmlns="http://www.w3.org/2000/svg">
<g clip-path="url(#clip0)">
<path fill-rule="evenodd" clip-rule="evenodd" d="M20 2.23708L17 4.76532V16.2347L20 18.7629V2.23708ZM15 15.2711V5.72889H8.70732C6.11786 5.72889 4 7.85435 4 10.5C4 13.1456 6.11786 15.2711 8.70732 15.2711H15ZM15.1263 3.72889L19.0002 0.464119C20.1694 -0.594455 22 0.264393 22 1.80863V19.1914C22 20.7356 20.1694 21.5944 19.0003 20.5359L15.1263 17.2711H13.9628L14.565 18.2442L14.5718 18.2557C15.4553 19.7724 14.9271 21.7083 13.4062 22.5783C11.8922 23.4445 9.95184 22.9353 9.0701 21.4275L6.33366 16.8353C3.79652 15.8664 2 13.3895 2 10.5C2 6.77079 4.99239 3.72889 8.70732 3.72889H15.1263ZM8.92151 17.2711L10.7956 20.4161C11.1188 20.971 11.8435 21.1682 12.4131 20.8423C12.9739 20.5215 13.1615 19.8204 12.8493 19.2723L11.6107 17.2711H8.92151Z" fill="black"/>
</g>
<defs>
<clipPath id="clip0">
<rect width="24" height="24" fill="white"/>
</clipPath>
</defs>
</svg>
