<svg width="24" height="24" viewBox="0 0 24 24" fill="none" xmlns="http://www.w3.org/2000/svg">
<g clip-path="url(#clip0)">
<path fill-rule="evenodd" clip-rule="evenodd" d="M9.05924 4.13808C8.60335 4.59398 8.34723 5.2123 8.34723 5.85704L8.34723 16.9986C8.34723 18.0983 8.78409 19.153 9.5617 19.9306C10.3393 20.7082 11.394 21.1451 12.4937 21.1451C13.5934 21.1451 14.6481 20.7082 15.4257 19.9306C16.2033 19.153 16.6401 18.0983 16.6401 16.9986L16.6401 5.85704C16.6401 5.30475 17.0879 4.85704 17.6401 4.85704C18.1924 4.85704 18.6401 5.30475 18.6401 5.85704L18.6401 16.9986C18.6401 18.6288 17.9926 20.1921 16.8399 21.3448C15.6872 22.4975 14.1238 23.1451 12.4937 23.1451C10.8635 23.1451 9.30017 22.4975 8.14749 21.3448C6.9948 20.1921 6.34723 18.6288 6.34723 16.9986L6.34723 5.85704C6.34723 4.68187 6.81406 3.55484 7.64503 2.72387C8.476 1.8929 9.60303 1.42606 10.7782 1.42606C11.9534 1.42606 13.0804 1.8929 13.9114 2.72387C14.7423 3.55483 15.2092 4.68187 15.2092 5.85704L15.2031 17.0047C15.2031 17.0049 15.2031 17.0045 15.2031 17.0047C15.203 17.7247 14.9169 18.4157 14.4078 18.9248C13.8985 19.4341 13.2078 19.7202 12.4876 19.7202C11.7674 19.7202 11.0767 19.4341 10.5675 18.9248C10.0582 18.4156 9.77214 17.7249 9.77214 17.0047L9.7782 6.71722C9.77853 6.16494 10.2265 5.71749 10.7788 5.71781C11.3311 5.71814 11.7785 6.16612 11.7782 6.7184L11.7721 17.0047C11.7721 17.0048 11.7721 17.0045 11.7721 17.0047C11.7722 17.1943 11.8476 17.3765 11.9817 17.5106C12.1159 17.6448 12.2979 17.7202 12.4876 17.7202C12.6774 17.7202 12.8594 17.6448 12.9936 17.5106C13.1277 17.3764 13.2031 17.1944 13.2031 17.0047L13.2092 5.85704C13.2092 5.85686 13.2092 5.85722 13.2092 5.85704C13.209 5.2125 12.9529 4.59385 12.4972 4.13808C12.0413 3.68218 11.4229 3.42606 10.7782 3.42606C10.1335 3.42606 9.51514 3.68218 9.05924 4.13808Z" fill="currentColor"/>
</g>
<defs>
<clipPath id="clip0">
<rect width="24" height="24" fill="white"/>
</clipPath>
</defs>
</svg>
