<svg width="24" height="24" viewBox="0 0 24 24" fill="none" xmlns="http://www.w3.org/2000/svg">
<g clip-path="url(#clip0)">
<path fill-rule="evenodd" clip-rule="evenodd" d="M11.2929 11.2929C11.6834 10.9024 12.3166 10.9024 12.7071 11.2929L16.7071 15.2929C17.0976 15.6834 17.0976 16.3166 16.7071 16.7071C16.3166 17.0976 15.6834 17.0976 15.2929 16.7071L12 13.4142L8.70711 16.7071C8.31658 17.0976 7.68342 17.0976 7.29289 16.7071C6.90237 16.3166 6.90237 15.6834 7.29289 15.2929L11.2929 11.2929Z" fill="currentColor"/>
<path fill-rule="evenodd" clip-rule="evenodd" d="M12 11C12.5523 11 13 11.4477 13 12V21C13 21.5523 12.5523 22 12 22C11.4477 22 11 21.5523 11 21V12C11 11.4477 11.4477 11 12 11Z" fill="currentColor"/>
<path fill-rule="evenodd" clip-rule="evenodd" d="M8.66329 2.00857C10.0228 1.95849 11.3759 2.21724 12.621 2.76539C13.8661 3.31354 14.9707 4.13682 15.8518 5.17332C16.5633 6.01025 17.1141 6.96861 17.4791 8.00001H18C19.333 8.00089 20.6285 8.44567 21.6807 9.26415C22.7328 10.0826 23.4825 11.2282 23.8113 12.52C24.1401 13.8119 24.0293 15.1765 23.4965 16.3984C22.9636 17.6203 22.0391 18.6299 20.8687 19.268C20.3837 19.5324 19.7763 19.3536 19.512 18.8687C19.2476 18.3838 19.4264 17.7764 19.9113 17.512C20.6916 17.0866 21.308 16.4135 21.6632 15.5989C22.0185 14.7843 22.0923 13.8746 21.8731 13.0134C21.6539 12.1521 21.1541 11.3884 20.4527 10.8428C19.7512 10.2971 18.888 10.0006 17.9993 10H16.74C16.2841 10 15.8859 9.69169 15.7718 9.25032C15.507 8.22591 15.0133 7.27487 14.328 6.46869C13.6427 5.66252 12.7836 5.02219 11.8152 4.59585C10.8468 4.16952 9.79431 3.96826 8.73693 4.00722C7.67955 4.04618 6.64476 4.32433 5.71035 4.82078C4.77595 5.31722 3.96625 6.01904 3.34212 6.87346C2.71799 7.72787 2.29568 8.71267 2.10693 9.75379C1.91819 10.7949 1.96792 11.8653 2.25239 12.8844C2.53686 13.9036 3.04866 14.845 3.74933 15.6378C4.11504 16.0517 4.07603 16.6836 3.66218 17.0493C3.24834 17.4151 2.61638 17.3761 2.25066 16.9622C1.3498 15.9428 0.691769 14.7324 0.326022 13.4221C-0.0397244 12.1118 -0.103664 10.7356 0.13901 9.39703C0.381683 8.05844 0.924656 6.79228 1.72711 5.69374C2.52956 4.5952 3.5706 3.69287 4.77198 3.05458C5.97336 2.41629 7.3038 2.05866 8.66329 2.00857Z" fill="currentColor"/>
<path fill-rule="evenodd" clip-rule="evenodd" d="M11.2929 11.2929C11.6834 10.9024 12.3166 10.9024 12.7071 11.2929L16.7071 15.2929C17.0976 15.6834 17.0976 16.3166 16.7071 16.7071C16.3166 17.0976 15.6834 17.0976 15.2929 16.7071L12 13.4142L8.70711 16.7071C8.31658 17.0976 7.68342 17.0976 7.29289 16.7071C6.90237 16.3166 6.90237 15.6834 7.29289 15.2929L11.2929 11.2929Z" fill="currentColor"/>
</g>
<defs>
<clipPath id="clip0">
<rect width="24" height="24" fill="white"/>
</clipPath>
</defs>
</svg>
