<svg width="24" height="24" viewBox="0 0 24 24" fill="none" xmlns="http://www.w3.org/2000/svg">
<path fill-rule="evenodd" clip-rule="evenodd" d="M7.05027 3.05025C8.36302 1.7375 10.1435 1 12 1C13.8565 1 15.637 1.7375 16.9498 3.05025C18.2625 4.36301 19 6.14349 19 8C19 11.3527 19.7171 13.4346 20.3779 14.6461C20.7097 15.2544 21.0328 15.6535 21.2572 15.8904C21.3697 16.0091 21.4581 16.0878 21.5113 16.1322C21.5379 16.1544 21.5558 16.168 21.5635 16.1737C21.5647 16.1746 21.5656 16.1753 21.5663 16.1758C21.9248 16.4221 22.0835 16.8725 21.9571 17.2898C21.8294 17.7115 21.4407 18 21 18H3.00002C2.55935 18 2.17062 17.7115 2.04292 17.2898C1.91658 16.8725 2.07522 16.4221 2.43371 16.1758C2.43441 16.1753 2.43536 16.1746 2.43656 16.1737C2.44426 16.168 2.46212 16.1544 2.48874 16.1322C2.54195 16.0878 2.63034 16.0091 2.74281 15.8904C2.96724 15.6535 3.29033 15.2544 3.62212 14.6461C4.28295 13.4346 5.00002 11.3527 5.00002 8C5.00002 6.14348 5.73751 4.36301 7.05027 3.05025ZM2.44381 16.169C2.44389 16.1689 2.44397 16.1688 2.44405 16.1688C2.44405 16.1688 2.44404 16.1688 2.44404 16.1688L2.44381 16.169ZM5.14934 16H18.8507C18.7746 15.8753 18.6982 15.7434 18.6221 15.6039C17.7829 14.0654 17 11.6473 17 8C17 6.67392 16.4732 5.40215 15.5356 4.46447C14.5979 3.52678 13.3261 3 12 3C10.6739 3 9.40216 3.52678 8.46448 4.46447C7.5268 5.40215 7.00002 6.67392 7.00002 8C7.00002 11.6473 6.21708 14.0654 5.37791 15.6039C5.30181 15.7434 5.22543 15.8753 5.14934 16Z" fill="currentColor"/>
<path fill-rule="evenodd" clip-rule="evenodd" d="M9.76823 20.135C10.246 19.8579 10.8579 20.0205 11.135 20.4982C11.2229 20.6498 11.3491 20.7756 11.5009 20.863C11.6527 20.9504 11.8248 20.9965 12 20.9965C12.1752 20.9965 12.3473 20.9504 12.4991 20.863C12.6509 20.7756 12.7771 20.6498 12.865 20.4982C13.1421 20.0205 13.754 19.8579 14.2318 20.135C14.7095 20.4121 14.8721 21.0241 14.595 21.5018C14.3313 21.9564 13.9528 22.3338 13.4973 22.5961C13.0419 22.8584 12.5256 22.9965 12 22.9965C11.4744 22.9965 10.9581 22.8584 10.5027 22.5961C10.0472 22.3338 9.66872 21.9564 9.405 21.5018C9.12788 21.0241 9.2905 20.4121 9.76823 20.135Z" fill="currentColor"/>
</svg>
