<svg width="24" height="24" viewBox="0 0 24 24" fill="none" xmlns="http://www.w3.org/2000/svg">
<g clip-path="url(#clip0)">
<path fill-rule="evenodd" clip-rule="evenodd" d="M9.76823 20.135C10.246 19.8579 10.8579 20.0205 11.135 20.4982C11.2229 20.6498 11.3491 20.7756 11.5009 20.863C11.6527 20.9504 11.8248 20.9965 12 20.9965C12.1752 20.9965 12.3473 20.9504 12.4991 20.863C12.6509 20.7756 12.7771 20.6498 12.865 20.4982C13.1421 20.0205 13.754 19.8579 14.2318 20.135C14.7095 20.4121 14.8721 21.0241 14.595 21.5018C14.3313 21.9564 13.9528 22.3338 13.4973 22.5961C13.0419 22.8584 12.5256 22.9965 12 22.9965C11.4744 22.9965 10.9581 22.8584 10.5027 22.5961C10.0472 22.3338 9.66872 21.9564 9.405 21.5018C9.12788 21.0241 9.2905 20.4121 9.76823 20.135Z" fill="currentColor"/>
<path fill-rule="evenodd" clip-rule="evenodd" d="M18.016 7.00013C18.5682 7.00895 19.0087 7.46377 18.9999 8.01598C18.9744 9.60967 19.1747 11.1989 19.5947 12.7365C19.7402 13.2693 19.4263 13.8191 18.8935 13.9647C18.3608 14.1102 17.8109 13.7963 17.6654 13.2635C17.1956 11.5439 16.9717 9.76643 17.0002 7.98403C17.009 7.43181 17.4638 6.99131 18.016 7.00013Z" fill="currentColor"/>
<path fill-rule="evenodd" clip-rule="evenodd" d="M6.55459 5.30438C7.08237 5.46707 7.37833 6.02681 7.21565 6.55459C7.07156 7.02202 6.99886 7.50852 7.00001 7.99766L7.00002 8.00001C7.00002 11.6474 6.21708 14.0654 5.37791 15.6039C5.30181 15.7434 5.22543 15.8753 5.14934 16H17C17.5523 16 18 16.4477 18 17C18 17.5523 17.5523 18 17 18H3.00002C2.55935 18 2.17062 17.7116 2.04292 17.2898C1.91658 16.8725 2.07522 16.4221 2.4337 16.1758C2.43441 16.1753 2.43536 16.1746 2.43656 16.1737C2.44426 16.168 2.46212 16.1544 2.48874 16.1322C2.54195 16.0878 2.63034 16.0091 2.74281 15.8904C2.96724 15.6535 3.29033 15.2544 3.62212 14.6462C4.28288 13.4348 4.99986 11.3531 5.00002 8.00109M2.44381 16.169C2.44389 16.1689 2.44397 16.1689 2.44405 16.1688C2.44405 16.1688 2.44404 16.1688 2.44404 16.1688L2.44381 16.169Z" fill="currentColor"/>
<path fill-rule="evenodd" clip-rule="evenodd" d="M11.6627 0.999221C12.9294 0.938119 14.1888 1.22224 15.3065 1.82122C16.4242 2.42021 17.3582 3.31157 18.0087 4.40008C18.6593 5.4886 19.0019 6.73338 19 8.00148C18.9992 8.55376 18.5508 9.00081 17.9985 8.99999C17.4463 8.99917 16.9992 8.55079 17 7.99851C17.0014 7.09273 16.7566 6.2036 16.292 5.42608C15.8273 4.64857 15.1602 4.01189 14.3618 3.58404C13.5634 3.15619 12.6638 2.95325 11.7591 2.9969C10.8544 3.04054 9.9785 3.32913 9.22503 3.83184C8.76561 4.13836 8.1447 4.01441 7.83818 3.55499C7.53166 3.09558 7.65561 2.47466 8.11503 2.16814C9.16989 1.46435 10.3961 1.06032 11.6627 0.999221Z" fill="currentColor"/>
<path fill-rule="evenodd" clip-rule="evenodd" d="M0.292893 0.292893C0.683417 -0.0976311 1.31658 -0.0976311 1.70711 0.292893L23.7071 22.2929C24.0976 22.6834 24.0976 23.3166 23.7071 23.7071C23.3166 24.0976 22.6834 24.0976 22.2929 23.7071L0.292893 1.70711C-0.0976311 1.31658 -0.0976311 0.683417 0.292893 0.292893Z" fill="currentColor"/>
</g>
<defs>
<clipPath id="clip0">
<rect width="24" height="24" fill="white"/>
</clipPath>
</defs>
</svg>
