<svg width="24" height="24" viewBox="0 0 24 24" fill="none" xmlns="http://www.w3.org/2000/svg">
<path fill-rule="evenodd" clip-rule="evenodd" d="M11.9829 6.05228C11.1377 5.9073 10.2685 6.06613 9.52918 6.50064C8.78986 6.93514 8.22818 7.61728 7.94361 8.42623C7.76033 8.94722 7.18942 9.22099 6.66843 9.03772C6.14744 8.85445 5.87367 8.28353 6.05694 7.76254C6.49825 6.50804 7.3693 5.45019 8.51582 4.77637C9.66234 4.10255 11.0103 3.85624 12.3211 4.08107C13.6318 4.30589 14.8206 4.98734 15.6771 6.00472C16.5334 7.02195 17.0021 8.30937 17.0003 9.63902C16.9998 11.7131 15.4574 13.1316 14.2394 13.9436C13.5998 14.3699 12.9674 14.6854 12.4988 14.8937C12.2631 14.9985 12.0653 15.0777 11.924 15.1315C11.8533 15.1584 11.7966 15.1791 11.7561 15.1935C11.7358 15.2007 11.7196 15.2063 11.7077 15.2104L11.6931 15.2154L11.6884 15.217L11.6866 15.2176L11.6859 15.2178C11.6856 15.2179 11.6853 15.218 11.3691 14.2693L11.6853 15.218C11.1613 15.3927 10.595 15.1095 10.4204 14.5856C10.2458 14.062 10.5285 13.4961 11.0517 13.321C11.0518 13.321 11.0518 13.321 11.0519 13.321C11.0521 13.3209 11.0522 13.3209 11.0523 13.3208C11.0525 13.3208 11.0527 13.3207 11.0528 13.3207L11.057 13.3192L11.0861 13.309C11.1134 13.2993 11.1561 13.2838 11.2121 13.2625C11.3241 13.2198 11.4881 13.1543 11.6865 13.0661C12.0863 12.8884 12.6117 12.625 13.13 12.2795C14.2274 11.5479 15.0003 10.651 15.0003 9.63813L15.0003 9.63664C15.0015 8.77909 14.6993 7.94877 14.147 7.29272C13.5948 6.63668 12.8281 6.19725 11.9829 6.05228ZM17.0003 9.63902C17.0003 9.63922 17.0003 9.63942 17.0003 9.63962L16.0003 9.63813H17.0003C17.0003 9.63842 17.0003 9.63872 17.0003 9.63902Z" fill="currentColor"/>
<path fill-rule="evenodd" clip-rule="evenodd" d="M10.4924 19.3065C10.4924 18.7542 10.9401 18.3065 11.4924 18.3065H11.5079C12.0602 18.3065 12.5079 18.7542 12.5079 19.3065C12.5079 19.8587 12.0602 20.3065 11.5079 20.3065H11.4924C10.9401 20.3065 10.4924 19.8587 10.4924 19.3065Z" fill="currentColor"/>
</svg>
