<svg width="1543" height="357" viewBox="0 0 1543 357" fill="none" xmlns="http://www.w3.org/2000/svg">
<path d="M621.156 97.9375C613.844 95.125 606.672 93.7188 599.641 93.7188C592.703 93.7188 587.969 93.9531 585.438 94.4219V83.1719H599.219C629.219 83.1719 652.797 92.4531 669.953 111.016C686.641 129.016 694.984 153.016 694.984 183.016C694.984 213.109 686.641 237.156 669.953 255.156C652.797 273.719 629.219 283 599.219 283H585.438V271.609C589.188 272.078 594.25 272.312 600.625 272.312C607 272.312 613.844 270.906 621.156 268.094C628.562 265.188 634.797 260.312 639.859 253.469C650.172 239.406 655.328 215.922 655.328 183.016C655.328 135.203 643.938 106.844 621.156 97.9375ZM573.766 283H516.812V274.703C519.344 273.578 521.781 272.688 524.125 272.031C526.562 271.375 528.719 270.531 530.594 269.5C534.531 267.25 536.5 263.125 536.5 257.125V109.047C536.5 103.047 534.531 98.9219 530.594 96.6719C528.719 95.6406 526.562 94.7969 524.125 94.1406C521.781 93.4844 519.344 92.5938 516.812 91.4688V83.1719H573.766V283ZM810.438 199.188C810.438 172.188 803.688 157 790.188 153.625V141.531C807.719 143.125 821.219 150.484 830.688 163.609C839.594 175.891 844.047 191.875 844.047 211.562H764.453V199.188H810.438ZM790.75 274.422C807.062 273.672 818.641 265.984 825.484 251.359C827.453 247.141 829.141 242.828 830.547 238.422L842.641 242.922C837.391 262.516 826.656 275.688 810.438 282.438C804.719 284.781 798.156 286.188 790.75 286.656V274.422ZM752.641 205.234C752.641 245.547 761.453 268.234 779.078 273.297V286.234C760.703 284.172 746.125 276.531 735.344 263.312C724.562 250.281 719.172 233.922 719.172 214.234C719.172 193.516 724.562 176.5 735.344 163.188C746.219 149.781 760.609 142.516 778.516 141.391V153.062C761.266 155.125 752.641 172.516 752.641 205.234ZM934.469 235.328L953.172 184.281C957.109 173.5 959.078 166.891 959.078 164.453C959.078 161.922 958.422 160.141 957.109 159.109C955.891 158.078 954.344 157.328 952.469 156.859C950.688 156.297 948.766 155.875 946.703 155.594C944.734 155.219 942.953 154.656 941.359 153.906V145.047H993.109V153.906C991.984 154.75 990.625 155.359 989.031 155.734C987.531 156.109 985.938 156.625 984.25 157.281C979.469 159.25 976.188 163.188 974.406 169.094C974.125 170.031 973.797 170.922 973.422 171.766L941.922 254.453L934.469 235.328ZM937 267.812L930.109 285.812H913.938L867.25 164.875C866.031 161.594 863.406 159.109 859.375 157.422C854.781 155.547 851.734 153.812 850.234 152.219V145.047H915.906V153.625C914.312 154.469 912.531 155.078 910.562 155.453C908.594 155.828 906.719 156.25 904.938 156.719C900.906 157.938 898.891 160 898.891 162.906C898.891 164.781 899.266 166.656 900.016 168.531C900.859 170.406 901.891 173.172 903.109 176.828C904.422 180.484 905.969 184.797 907.75 189.766C909.625 194.641 911.641 199.984 913.797 205.797C915.953 211.609 918.297 217.938 920.828 224.781C923.359 231.625 926.172 239.125 929.266 247.281L937 267.812ZM1075.09 94.7031C1070.59 94.7031 1067.22 95.0312 1064.97 95.6875V83.1719H1079.59C1104.25 83.1719 1122.81 87.8125 1135.28 97.0938C1146.72 105.531 1152.44 117.297 1152.44 132.391C1152.44 144.391 1148.03 154.422 1139.22 162.484C1130.5 170.453 1118.69 175.281 1103.78 176.969V177.531C1131.62 181.281 1149.72 191.312 1158.06 207.625C1161.16 213.438 1162.7 220.281 1162.7 228.156C1162.7 235.938 1161.34 243.156 1158.62 249.812C1155.91 256.469 1151.69 262.281 1145.97 267.25C1133.69 277.75 1115.83 283 1092.39 283H1064.97V270.625C1067.03 271.188 1071.25 271.469 1077.62 271.469C1093.84 271.469 1105.75 268.188 1113.34 261.625C1120.94 255.062 1124.73 244.516 1124.73 229.984C1124.73 215.453 1120.61 204.297 1112.36 196.516C1104.2 188.734 1091.78 184.844 1075.09 184.844H1064.97V172.469H1070.31C1099.66 172.469 1114.33 159.203 1114.33 132.672C1114.33 107.359 1101.25 94.7031 1075.09 94.7031ZM1053.3 283H998.594V274.703C1001.12 273.578 1003.56 272.688 1005.91 272.031C1008.34 271.375 1010.5 270.531 1012.38 269.5C1016.31 267.25 1018.28 263.125 1018.28 257.125V109.047C1018.28 103.047 1016.31 98.9219 1012.38 96.6719C1010.5 95.6406 1008.34 94.7969 1005.91 94.1406C1003.56 93.4844 1001.12 92.5938 998.594 91.4688V83.1719H1053.3V283ZM1251.3 271.75C1258.98 271.75 1265.92 268.75 1272.11 262.75V278.922C1263.67 284.172 1253.27 286.797 1240.89 286.797C1220.45 286.797 1207.75 279.625 1202.78 265.281C1201.09 260.312 1200.25 254.312 1200.25 247.281V167.547C1200.25 162.672 1198.42 159.25 1194.77 157.281C1193.17 156.438 1191.39 155.781 1189.42 155.312C1187.45 154.75 1185.58 153.906 1183.8 152.781V144.203H1230.34V249.812C1230.34 264.438 1237.33 271.75 1251.3 271.75ZM1283.78 167.547C1283.78 162.578 1281.91 159.156 1278.16 157.281C1276.47 156.438 1274.59 155.781 1272.53 155.312C1270.47 154.75 1268.41 153.906 1266.34 152.781V144.203H1313.73V259.938C1313.73 264.812 1315.66 268.188 1319.5 270.062C1321.19 270.906 1323.02 271.609 1324.98 272.172C1326.95 272.734 1328.83 273.578 1330.61 274.703V283H1285.75L1283.78 268.094V167.547ZM1397.55 251.922C1397.55 262.234 1399.66 268.469 1403.88 270.625C1405.94 271.562 1408.33 272.219 1411.05 272.594C1413.77 272.969 1416.77 273.953 1420.05 275.547V283H1346.92V275.547C1348.8 274.328 1351.28 273.344 1354.38 272.594C1357.56 271.75 1359.81 271.094 1361.12 270.625C1362.44 270.062 1363.56 269.172 1364.5 267.953C1366.56 265.422 1367.59 260.922 1367.59 254.453V157.422H1344.95V149.406C1346.27 148 1348.94 147.062 1352.97 146.594C1360.66 145.562 1365.44 144.109 1367.31 142.234C1368.34 123.203 1370.41 110.219 1373.5 103.281C1376.69 96.3438 1380.11 91.2813 1383.77 88.0938C1387.42 84.8125 1392.02 82.4219 1397.55 80.9219V251.922ZM1432 97.375C1430.03 92.125 1423.94 89.5 1413.72 89.5C1412.31 89.5 1410.81 89.7344 1409.22 90.2031V79.0938C1411.28 78.9063 1414.14 78.8125 1417.8 78.8125C1421.45 78.8125 1425.34 79.4219 1429.47 80.6406C1433.69 81.7656 1437.34 83.4063 1440.44 85.5625C1446.91 90.3438 1450.14 96.625 1450.14 104.406C1450.14 109.469 1448.5 113.5 1445.22 116.5C1442.41 119.031 1439.45 120.297 1436.36 120.297C1433.27 120.297 1430.88 120.062 1429.19 119.594C1427.59 119.031 1426.19 118.281 1424.97 117.344C1422.16 115.188 1420.75 112.234 1420.75 108.484C1420.75 103.047 1424.5 99.3438 1432 97.375ZM1409.22 145.047H1427.5V157.422H1409.22V145.047ZM1490.36 251.922C1490.36 262.234 1492.47 268.469 1496.69 270.625C1498.75 271.562 1501.14 272.219 1503.86 272.594C1506.58 272.969 1509.58 273.953 1512.86 275.547V283H1439.73V275.547C1441.61 274.328 1444.09 273.344 1447.19 272.594C1450.38 271.75 1452.62 271.094 1453.94 270.625C1455.25 270.062 1456.38 269.172 1457.31 267.953C1459.38 265.422 1460.41 260.922 1460.41 254.453V157.422H1437.77V149.406C1439.08 148 1441.75 147.062 1445.78 146.594C1453.47 145.562 1458.25 144.109 1460.12 142.234C1461.16 123.203 1463.22 110.219 1466.31 103.281C1469.5 96.3438 1472.92 91.2813 1476.58 88.0938C1480.23 84.8125 1484.83 82.4219 1490.36 80.9219V251.922ZM1524.81 97.375C1522.84 92.125 1516.75 89.5 1506.53 89.5C1505.12 89.5 1503.62 89.7344 1502.03 90.2031V79.0938C1504.09 78.9063 1506.95 78.8125 1510.61 78.8125C1514.27 78.8125 1518.16 79.4219 1522.28 80.6406C1526.5 81.7656 1530.16 83.4063 1533.25 85.5625C1539.72 90.3438 1542.95 96.625 1542.95 104.406C1542.95 109.469 1541.31 113.5 1538.03 116.5C1535.22 119.031 1532.27 120.297 1529.17 120.297C1526.08 120.297 1523.69 120.062 1522 119.594C1520.41 119.031 1519 118.281 1517.78 117.344C1514.97 115.188 1513.56 112.234 1513.56 108.484C1513.56 103.047 1517.31 99.3438 1524.81 97.375ZM1502.03 145.047H1520.31V157.422H1502.03V145.047Z" fill="white"/>
<g clip-path="url(#clip0)">
<rect x="-0.0185547" y="0.0296631" width="356.64" height="356.64" rx="40" fill="white"/>
<path d="M126 129.503C153.566 145.418 167.349 153.375 171.974 163.764C176.009 172.826 176.009 183.174 171.974 192.236C167.349 202.625 153.566 210.582 126 226.497L-130.5 374.588C-158.066 390.503 -171.849 398.46 -183.159 397.272C-193.023 396.235 -201.985 391.061 -207.816 383.036C-214.5 373.836 -214.5 357.921 -214.5 326.09L-214.5 29.9097C-214.5 -1.92051 -214.5 -17.8356 -207.816 -27.0359C-201.985 -35.0608 -193.023 -40.2348 -183.158 -41.2717C-171.849 -42.4604 -158.066 -34.5029 -130.5 -18.5878L126 129.503Z" fill="black"/>
<path d="M101.981 165.787C115.207 173.785 121.821 177.785 124.401 183.138C126.659 187.822 127.004 193.2 125.364 198.134C123.488 203.773 117.441 208.585 105.346 218.209L24.4019 282.614C8.88139 294.964 1.12114 301.138 -5.65724 301.263C-11.5601 301.372 -17.2095 298.868 -21.0924 294.42C-25.5511 289.313 -26.1863 279.417 -27.4566 259.623L-35.0256 141.688C-36.2959 121.895 -36.9311 111.998 -33.1618 106.363C-29.8793 101.456 -24.5964 98.2498 -18.728 97.6033C-11.9893 96.8609 -3.50335 101.993 13.4685 112.257L101.981 165.787Z" fill="white"/>
<path d="M160 279C160 273.477 164.477 269 170 269H357V317H170C164.477 317 160 312.523 160 307V279Z" fill="black"/>
</g>
<defs>
<clipPath id="clip0">
<rect width="357" height="357" fill="white"/>
</clipPath>
</defs>
</svg>
