<svg width="1340" height="357" viewBox="0 0 1340 357" fill="none" xmlns="http://www.w3.org/2000/svg">
<g clip-path="url(#clip0)">
<g clip-path="url(#clip1)">
<rect x="0.981445" y="0.0296631" width="356.64" height="356.64" rx="40" fill="white"/>
<path d="M127 129.503C154.566 145.418 168.349 153.375 172.974 163.764C177.009 172.826 177.009 183.174 172.974 192.236C168.349 202.625 154.566 210.582 127 226.497L-129.5 374.588C-157.066 390.503 -170.849 398.46 -182.159 397.272C-192.023 396.235 -200.985 391.061 -206.816 383.036C-213.5 373.836 -213.5 357.921 -213.5 326.09L-213.5 29.9097C-213.5 -1.92051 -213.5 -17.8356 -206.816 -27.0359C-200.985 -35.0608 -192.023 -40.2348 -182.158 -41.2717C-170.849 -42.4604 -157.066 -34.5029 -129.5 -18.5878L127 129.503Z" fill="black"/>
<path d="M102.981 165.787C116.207 173.785 122.821 177.785 125.401 183.138C127.659 187.822 128.004 193.2 126.364 198.134C124.488 203.773 118.441 208.585 106.346 218.209L25.4019 282.614C9.88139 294.964 2.12114 301.138 -4.65724 301.263C-10.5601 301.372 -16.2095 298.868 -20.0924 294.42C-24.5511 289.313 -25.1863 279.417 -26.4566 259.623L-34.0256 141.688C-35.2959 121.895 -35.9311 111.998 -32.1618 106.363C-28.8793 101.456 -23.5964 98.2498 -17.728 97.6033C-10.9893 96.8609 -2.50335 101.993 14.4685 112.257L102.981 165.787Z" fill="white"/>
<path d="M161 279C161 273.477 165.477 269 171 269H358V317H171C165.477 317 161 312.523 161 307V279Z" fill="black"/>
</g>
<path d="M485.109 270.75H497.484C504.422 270.75 509.438 268.5 512.531 264C515.719 259.5 517.312 251.25 517.312 239.25L517.172 117.047C517.172 104.203 515.578 95.0625 512.391 89.625C509.297 84.1875 503.906 81.4688 496.219 81.4688H485.109V270.75ZM447.422 300V52.5H502.969C521.156 52.5 534.328 57.8906 542.484 68.6719C550.734 79.3594 554.859 95.1562 554.859 116.062L555 227.719C555 252.656 550.875 270.938 542.625 282.562C534.375 294.188 520.734 300 501.703 300H447.422ZM638.25 302.531C614.531 302.531 599.25 293.484 592.406 275.391C588.094 263.859 585.938 248.672 585.938 229.828V151.219C585.938 108.094 603.891 86.5312 639.797 86.5312C658.922 86.5312 672.141 92.2031 679.453 103.547C686.859 114.891 690.562 131.016 690.562 151.922V197.062H623.484V238.547C623.484 253.172 624.75 262.5 627.281 266.531C629.812 270.469 633.609 272.438 638.672 272.438C643.734 272.438 647.016 271.266 648.516 268.922C651.047 264.797 652.5 260.578 652.875 256.266C653.25 251.953 653.438 246.047 653.438 238.547V219.984H690.281V231.234C690.281 250.359 688.781 264.094 685.781 272.438C682.781 280.781 679.312 286.828 675.375 290.578C667.125 298.547 654.75 302.531 638.25 302.531ZM623.344 175.266H653.438V148.266C653.438 136.734 652.5 128.484 650.625 123.516C648.844 118.453 645.141 115.922 639.516 115.922C639.422 115.922 639.375 115.922 639.375 115.922C629.625 115.922 624.375 123.375 623.625 138.281C623.438 141.094 623.344 144.75 623.344 149.25V175.266ZM741.047 300L710.531 89.0625H745.688L759.328 201.281L763.969 251.766H766.781L770.719 201.141L782.391 89.0625H817.266L786.75 300H741.047ZM946.922 116.062C946.922 142.688 939.703 159.047 925.266 165.141C942.891 171.047 951.703 190.5 951.703 223.5V229.828C951.516 254.672 947.156 272.578 938.625 283.547C930.188 294.516 916.359 300 897.141 300H842.438V52.5H896.016C914.484 52.5 927.562 56.8125 935.25 65.4375C942.938 73.9688 946.828 88.3125 946.922 108.469V116.062ZM880.125 270.75H893.484C900.984 270.75 906.234 268.172 909.234 263.016C912.234 257.859 913.734 248.625 913.734 235.312V215.344C913.734 202.781 912.516 193.922 910.078 188.766C907.641 183.516 902.953 180.891 896.016 180.891H880.125V270.75ZM880.125 152.625H894.047C900.516 152.625 904.734 150.562 906.703 146.438C908.766 142.312 909.797 133.828 909.797 120.984V106.078C909.703 96.5156 908.391 90.1406 905.859 86.9531C903.328 83.6719 898.969 82.0312 892.781 82.0312H880.125V152.625ZM1017.23 302.672C992.203 302.672 979.688 285.844 979.688 252.188V89.0625H1017.09V246.422C1017.09 255.141 1018.17 261.609 1020.33 265.828C1022.48 269.953 1026.52 272.016 1032.42 272.016C1043.77 272.016 1049.44 263.578 1049.44 246.703L1049.58 89.0625H1086.7V300H1049.44V278.062C1043.53 294.469 1032.8 302.672 1017.23 302.672ZM1129.73 300V124.219H1113.42V97.3594H1129.88V86.3906C1129.88 74.5781 1132.92 65.4375 1139.02 58.9688C1145.2 52.4062 1153.41 49.125 1163.62 49.125C1173.84 49.125 1182.09 50.2969 1188.38 52.6406V75.9844C1185.56 75.6094 1182.28 75.4219 1178.53 75.4219C1170.84 75.4219 1167 79.4531 1167 87.5156V97.3594H1188.38V124.219H1167V300H1129.73ZM1219.45 300V124.219H1203.14V97.3594H1219.59V86.3906C1219.59 74.5781 1222.64 65.4375 1228.73 58.9688C1234.92 52.4062 1243.12 49.125 1253.34 49.125C1263.56 49.125 1271.81 50.2969 1278.09 52.6406V75.9844C1275.28 75.6094 1272 75.4219 1268.25 75.4219C1260.56 75.4219 1256.72 79.4531 1256.72 87.5156V97.3594H1278.09V124.219H1256.72V300H1219.45Z" fill="white"/>
</g>
<defs>
<clipPath id="clip0">
<rect width="1340" height="357" fill="white"/>
</clipPath>
<clipPath id="clip1">
<rect width="357" height="357" fill="white" transform="translate(1)"/>
</clipPath>
</defs>
</svg>
