<svg width="230" height="87" viewBox="0 0 230 87" fill="none" xmlns="http://www.w3.org/2000/svg">
<path d="M67.4158 21.968H77.2718C80.8984 21.968 83.4798 22.5867 85.0158 23.824C86.5944 25.0187 87.5758 27.0453 87.9598 29.904C88.3864 32.72 88.5998 37.4133 88.5998 43.984C88.5998 50.5547 88.3864 55.2693 87.9598 58.128C87.5758 60.944 86.5944 62.9707 85.0158 64.208C83.4798 65.4027 80.8984 66 77.2718 66H67.4158V21.968ZM77.2718 60.048C78.8504 60.048 79.9384 59.792 80.5358 59.28C81.1758 58.7253 81.6024 57.4027 81.8158 55.312C82.0291 53.1787 82.1358 49.4027 82.1358 43.984C82.1358 38.5653 82.0291 34.8107 81.8158 32.72C81.6024 30.5867 81.1758 29.264 80.5358 28.752C79.9384 28.1973 78.8504 27.92 77.2718 27.92H73.8798V60.048H77.2718ZM112.474 51.6H99.0983C99.0983 54.5867 99.2049 56.72 99.4183 58C99.6316 59.2373 100.122 60.0907 100.89 60.56C101.658 61.0293 102.938 61.264 104.73 61.264C106.736 61.264 109.104 61.0933 111.834 60.752V65.616C110.853 65.872 109.573 66.0853 107.994 66.256C106.416 66.4267 104.88 66.512 103.386 66.512C100.229 66.512 97.9036 65.9787 96.4103 64.912C94.9596 63.8027 94.0209 62.1387 93.5943 59.92C93.1676 57.6587 92.9543 54.2667 92.9543 49.744C92.9543 45.1787 93.1463 41.7867 93.5303 39.568C93.9143 37.3493 94.8103 35.6853 96.2183 34.576C97.6689 33.424 99.9729 32.848 103.13 32.848C106.117 32.848 108.25 33.3813 109.53 34.448C110.853 35.472 111.664 37.072 111.962 39.248C112.304 41.3813 112.474 44.8587 112.474 49.68V51.6ZM103.066 38.096C101.829 38.096 100.954 38.3093 100.442 38.736C99.9303 39.12 99.5889 39.9093 99.4183 41.104C99.2476 42.2987 99.1409 44.3253 99.0983 47.184H106.714V46.608C106.714 43.9627 106.608 42.064 106.394 40.912C106.224 39.76 105.882 39.0133 105.37 38.672C104.901 38.288 104.133 38.096 103.066 38.096ZM121.266 66L114.546 33.36H120.754L125.234 58.448H125.682L130.034 33.36H136.114L129.394 66H121.266ZM139.853 21.968H151.309C154.552 21.968 156.92 22.8853 158.413 24.72C159.949 26.5547 160.717 29.328 160.717 33.04C160.717 36.112 160.269 38.48 159.373 40.144C158.477 41.808 157.091 42.896 155.213 43.408V43.664C157.347 44.176 158.861 45.264 159.757 46.928C160.653 48.592 161.101 51.0453 161.101 54.288C161.101 58.0427 160.355 60.944 158.861 62.992C157.368 64.9973 154.808 66 151.181 66H139.853V21.968ZM149.965 40.848C151.544 40.848 152.675 40.3787 153.357 39.44C154.04 38.4587 154.381 36.7733 154.381 34.384C154.381 32.592 154.253 31.248 153.997 30.352C153.784 29.456 153.357 28.8373 152.717 28.496C152.12 28.112 151.203 27.92 149.965 27.92H146.317V40.848H149.965ZM150.029 60.048C151.309 60.048 152.248 59.856 152.845 59.472C153.485 59.088 153.933 58.4267 154.189 57.488C154.445 56.5493 154.573 55.1627 154.573 53.328C154.573 51.536 154.424 50.1707 154.125 49.232C153.869 48.2507 153.4 47.568 152.717 47.184C152.077 46.8 151.181 46.608 150.029 46.608H146.317V60.048H150.029ZM179.225 61.84H178.777C177.923 64.9547 175.769 66.512 172.313 66.512C170.393 66.512 168.942 66.128 167.961 65.36C167.022 64.592 166.382 63.3973 166.041 61.776C165.742 60.1547 165.593 57.8293 165.593 54.8V33.36H171.737V52.048C171.737 54.9067 171.801 56.9333 171.929 58.128C172.099 59.28 172.419 60.048 172.889 60.432C173.358 60.7733 174.147 60.944 175.257 60.944C176.494 60.944 177.369 60.6027 177.881 59.92C178.435 59.2373 178.777 58.2133 178.905 56.848C179.033 55.44 179.097 53.1147 179.097 49.872V33.36H185.241V66H179.481L179.225 61.84ZM192.447 38.608H188.991V33.36H192.447V29.84C192.447 26.2987 192.725 23.76 193.279 22.224C193.877 20.6453 194.879 19.6213 196.287 19.152C197.738 18.6827 200.063 18.448 203.263 18.448V23.12C201.855 23.12 200.831 23.248 200.191 23.504C199.594 23.7173 199.167 24.1867 198.911 24.912C198.698 25.5947 198.591 26.7467 198.591 28.368V33.36H203.263V38.608H198.591V66H192.447V38.608ZM208.767 38.608H205.311V33.36H208.767V29.84C208.767 26.2987 209.045 23.76 209.599 22.224C210.197 20.6453 211.199 19.6213 212.607 19.152C214.058 18.6827 216.383 18.448 219.583 18.448V23.12C218.175 23.12 217.151 23.248 216.511 23.504C215.914 23.7173 215.487 24.1867 215.231 24.912C215.018 25.5947 214.911 26.7467 214.911 28.368V33.36H219.583V38.608H214.911V66H208.767V38.608Z" fill="white"/>
<path d="M42.0741 35.8878L8.60204 50.4049C7.58774 50.7171 6.6222 50.5903 5.70543 50.0244C4.78865 49.4586 4.19372 48.6488 3.92064 47.5952C3.64756 46.5415 3.77435 45.5366 4.301 44.5805C4.82766 43.6244 5.59814 42.9903 6.61245 42.6781L40.0845 28.161C41.1378 27.8878 42.1131 28.0244 43.0104 28.5708C43.9076 29.1171 44.5026 29.9269 44.7952 31C45.0877 32.0732 44.961 33.0878 44.4148 34.0439C43.8686 35 43.0884 35.6147 42.0741 35.8878ZM38.329 24.6488L4.85692 39.1659C3.84262 39.4781 2.87708 39.3513 1.9603 38.7854C1.04353 38.2196 0.448598 37.4098 0.175516 36.3561C-0.0975662 35.3025 0.0292219 34.2976 0.55588 33.3415C1.08254 32.3854 1.85302 31.7708 2.86732 31.4976L36.3394 16.922C37.3927 16.6488 38.368 16.7854 39.2652 17.3317C40.1625 17.8781 40.7574 18.6878 41.05 19.761C41.3426 20.8342 41.2158 21.8488 40.6697 22.8049C40.1235 23.761 39.3433 24.3756 38.329 24.6488ZM17.7308 20.9025L8.60204 24.1805C7.58774 24.4927 6.6222 24.3756 5.70543 23.8293C4.78865 23.283 4.19372 22.4732 3.92064 21.4C3.64756 20.3269 3.77435 19.3122 4.301 18.3561C4.82766 17.4 5.59814 16.7854 6.61245 16.5122L15.7997 13.1756C16.814 12.9025 17.7795 13.0391 18.6963 13.5854C19.6131 14.1317 20.208 14.9415 20.4811 16.0147C20.7542 17.0878 20.6274 18.1025 20.1007 19.0586C19.5741 20.0147 18.7841 20.6293 17.7308 20.9025ZM16.5019 50.9317C16.892 50.5805 17.3407 50.3269 17.8478 50.1708L36.3394 43.1464C37.3927 42.8732 38.368 43.0098 39.2652 43.5561C40.1625 44.1025 40.7574 44.9122 41.05 45.9854C41.3426 47.0586 41.2158 48.0732 40.6697 49.0293C40.1235 49.9854 39.3433 50.6 38.329 50.8732L22.5292 56.9025C22.4902 57.4098 22.4707 57.7805 22.4707 58.0147H26.2158C27.2691 58.0147 28.1567 58.3854 28.8784 59.1269C29.6001 59.8683 29.961 60.7561 29.961 61.7903C29.961 62.8244 29.6001 63.7025 28.8784 64.4244C28.1567 65.1464 27.2691 65.5074 26.2158 65.5074H18.7256C18.4915 65.5074 18.2574 65.4878 18.0234 65.4488C16.1118 65.2537 14.5026 64.4439 13.1957 63.0196C11.8888 61.5952 11.2353 59.9269 11.2353 58.0147C11.2353 56.3756 11.723 54.9025 12.6983 53.5952C13.6736 52.2878 14.9414 51.4 16.5019 50.9317ZM22.4707 73C20.4031 73 18.6378 72.6391 17.1749 71.9171C15.7119 71.1952 14.9805 70.3074 14.9805 69.2537H29.961C29.961 70.3074 29.2295 71.1952 27.7665 71.9171C26.3036 72.6391 24.5383 73 22.4707 73Z" fill="url(#paint0_linear)"/>
<defs>
<linearGradient id="paint0_linear" x1="22.4919" y1="73" x2="22.4919" y2="13.0391" gradientUnits="userSpaceOnUse">
<stop stop-color="#007CF0"/>
<stop offset="1" stop-color="#00DFD8"/>
</linearGradient>
</defs>
</svg>
