<svg width="24" height="24" viewBox="0 0 24 24" fill="none" xmlns="http://www.w3.org/2000/svg">
<path fill-rule="evenodd" clip-rule="evenodd" d="M12 7C8.13401 7 5 10.134 5 14C5 17.866 8.13401 21 12 21C15.866 21 19 17.866 19 14C19 10.134 15.866 7 12 7ZM3 14C3 9.02944 7.02944 5 12 5C16.9706 5 21 9.02944 21 14C21 18.9706 16.9706 23 12 23C7.02944 23 3 18.9706 3 14Z" fill="currentColor"/>
<path fill-rule="evenodd" clip-rule="evenodd" d="M12 9C12.5523 9 13 9.44772 13 10V13.882L15.4472 15.1056C15.9412 15.3526 16.1414 15.9532 15.8944 16.4472C15.6474 16.9412 15.0468 17.1414 14.5528 16.8944L11.5528 15.3944C11.214 15.225 11 14.8788 11 14.5V10C11 9.44772 11.4477 9 12 9Z" fill="currentColor"/>
<path fill-rule="evenodd" clip-rule="evenodd" d="M13 3V6H11V3H13Z" fill="currentColor"/>
<path fill-rule="evenodd" clip-rule="evenodd" d="M16 3C16 3.55228 15.5523 4 15 4L9 4C8.44772 4 8 3.55228 8 3C8 2.44772 8.44772 2 9 2L15 2C15.5523 2 16 2.44772 16 3Z" fill="currentColor"/>
</svg>
