<svg width="20" height="20" viewBox="0 0 20 20" fill="none" xmlns="http://www.w3.org/2000/svg">
<path d="M9.30657 0.884068C9.4373 0.620014 9.70654 0.452606 10.0008 0.452606C10.2951 0.452606 10.5647 0.620014 10.695 0.884068L13.185 5.93002C13.2976 6.15826 13.5159 6.31661 13.7683 6.35328L19.3368 7.16228C19.6289 7.20456 19.8705 7.40907 19.9615 7.68909C20.0526 7.96911 19.9766 8.27717 19.7656 8.48255L15.7367 12.4106C15.5541 12.5883 15.4709 12.8446 15.5136 13.0957L16.4645 18.6422C16.5137 18.933 16.3951 19.2264 16.156 19.3998C15.9174 19.5724 15.602 19.5953 15.3406 19.4589L10.3598 16.84C10.1345 16.7213 9.86488 16.7213 9.63923 16.84L4.65843 19.4585C4.39783 19.5953 4.08156 19.5729 3.84297 19.3998C3.60437 19.2268 3.48528 18.933 3.5349 18.6422L4.48584 13.0957C4.52899 12.8446 4.44529 12.5883 4.26278 12.4106L0.233784 8.48255C0.0227993 8.27674 -0.053138 7.96911 0.0379005 7.68909C0.128939 7.40907 0.370989 7.20456 0.663089 7.16228L6.2324 6.35328C6.48438 6.31661 6.7027 6.15826 6.81531 5.92959L9.30657 0.884068Z" fill="#FED74D"/>
</svg>
