<svg width="28" height="28" viewBox="0 0 28 28" fill="none" xmlns="http://www.w3.org/2000/svg">
<path d="M13.0292 1.2377C13.2122 0.868022 13.5892 0.633652 14.0011 0.633652C14.4131 0.633652 14.7906 0.868022 14.973 1.2377L18.459 8.30203C18.6166 8.62157 18.9223 8.84326 19.2756 8.8946L27.0715 10.0272C27.4804 10.0864 27.8187 10.3727 27.9461 10.7647C28.0736 11.1568 27.9673 11.588 27.6719 11.8756L22.0313 17.3748C21.7758 17.6237 21.6592 17.9825 21.719 18.334L23.0503 26.0991C23.1192 26.5062 22.9531 26.917 22.6184 27.1598C22.2844 27.4014 21.8428 27.4334 21.4768 27.2425L14.5037 23.576C14.1884 23.4099 13.8108 23.4099 13.4949 23.576L6.5218 27.2419C6.15696 27.4334 5.71419 27.402 5.38015 27.1598C5.04611 26.9176 4.8794 26.5062 4.94886 26.0991L6.28018 18.334C6.34059 17.9825 6.2234 17.6237 5.96789 17.3748L0.327298 11.8756C0.0319191 11.5874 -0.0743932 11.1568 0.0530607 10.7647C0.180515 10.3727 0.519385 10.0864 0.928325 10.0272L8.72536 8.8946C9.07813 8.84326 9.38377 8.62157 9.54143 8.30143L13.0292 1.2377Z" fill="#D5D5D5"/>
</svg>
