<svg width="16" height="16" viewBox="0 0 16 16" fill="none" xmlns="http://www.w3.org/2000/svg">
<path d="M7.5146 1.30202C7.60611 1.11719 7.79458 1 8.00056 1C8.20654 1 8.3953 1.11719 8.48651 1.30202L10.2295 4.83419C10.3083 4.99396 10.4611 5.1048 10.6378 5.13047L14.5357 5.69677C14.7402 5.72637 14.9093 5.86953 14.9731 6.06554C15.0368 6.26155 14.9836 6.4772 14.836 6.62096L12.0157 9.37058C11.8879 9.49502 11.8296 9.67442 11.8595 9.8502L12.5252 13.7327C12.5596 13.9363 12.4765 14.1416 12.3092 14.2631C12.1422 14.3839 11.9214 14.3999 11.7384 14.3044L8.25184 12.4712C8.09418 12.3881 7.90542 12.3881 7.74746 12.4712L4.2609 14.3041C4.07848 14.3999 3.85709 14.3842 3.69008 14.2631C3.52306 14.142 3.4397 13.9363 3.47443 13.7327L4.14009 9.8502C4.17029 9.67442 4.1117 9.49502 3.98394 9.37058L1.16365 6.62096C1.01596 6.4769 0.962803 6.26155 1.02653 6.06554C1.09026 5.86953 1.25969 5.72637 1.46416 5.69677L5.36268 5.13047C5.53906 5.1048 5.69189 4.99396 5.77072 4.83389L7.5146 1.30202Z" fill="#FED74D"/>
</svg>
