<svg width="25" height="24" viewBox="0 0 25 24" fill="none" xmlns="http://www.w3.org/2000/svg">
<g clip-path="url(#clip0)">
<path d="M19.8899 1L23.8899 5L19.8899 9" stroke="#181818" stroke-width="2" stroke-linecap="round" stroke-linejoin="round"/>
<path d="M15.8899 5H23.8899" stroke="#181818" stroke-width="2" stroke-linecap="round" stroke-linejoin="round"/>
<path d="M22.8899 16.92V19.92C22.891 20.1985 22.834 20.4742 22.7224 20.7293C22.6108 20.9845 22.4472 21.2136 22.242 21.4019C22.0368 21.5901 21.7945 21.7335 21.5306 21.8227C21.2668 21.9119 20.9873 21.9451 20.7099 21.92C17.6327 21.5856 14.6769 20.5341 12.0799 18.85C9.66372 17.3147 7.61523 15.2662 6.07989 12.85C4.38987 10.2412 3.33814 7.27099 3.00989 4.18C2.9849 3.90346 3.01777 3.62476 3.10639 3.36162C3.19502 3.09849 3.33747 2.85669 3.52466 2.65162C3.71186 2.44655 3.9397 2.28271 4.19369 2.17052C4.44767 2.05833 4.72223 2.00026 4.99989 2H7.99989C8.4852 1.99522 8.95569 2.16708 9.32366 2.48353C9.69163 2.79998 9.93197 3.23944 9.99989 3.72C10.1265 4.68006 10.3613 5.62272 10.6999 6.53C10.8344 6.88792 10.8636 7.27691 10.7838 7.65088C10.704 8.02484 10.5188 8.36811 10.2499 8.64L8.97989 9.91C10.4035 12.4135 12.4763 14.4864 14.9799 15.91L16.2499 14.64C16.5218 14.3711 16.865 14.1858 17.239 14.1061C17.613 14.0263 18.002 14.0555 18.3599 14.19C19.2672 14.5285 20.2098 14.7634 21.1699 14.89C21.6557 14.9585 22.0993 15.2032 22.4164 15.5775C22.7336 15.9518 22.9021 16.4296 22.8899 16.92Z" stroke="#181818" stroke-width="2" stroke-linecap="round" stroke-linejoin="round"/>
</g>
<defs>
<clipPath id="clip0">
<rect width="24" height="24" fill="white" transform="translate(0.889893)"/>
</clipPath>
</defs>
</svg>
