<svg width="24" height="24" viewBox="0 0 24 24" fill="none" xmlns="http://www.w3.org/2000/svg">
<path d="M18.87 23.93C18.79 23.93 18.7 23.93 18.62 23.92C15.39 23.57 12.25 22.45 9.53996 20.69C7.01996 19.09 4.83996 16.91 3.23996 14.39C1.47996 11.67 0.359962 8.52 0.0199619 5.29C-0.0600381 4.47 0.179962 3.69 0.699962 3.08C1.20996 2.46 1.93996 2.09 2.72996 2.01C2.81996 2 2.90996 2 2.99996 2H5.99996C6.00996 2 6.01996 2 6.02996 2C7.50996 2 8.77996 3.1 8.98996 4.58C9.10996 5.47 9.32996 6.34 9.63996 7.18C10.05 8.27 9.78996 9.51 8.95996 10.34L8.23996 11.06C9.41996 12.9 10.98 14.47 12.83 15.65L13.55 14.93C14.38 14.11 15.63 13.84 16.72 14.25C17.55 14.56 18.43 14.78 19.31 14.89C20.82 15.1 21.93 16.41 21.9 17.92V20.91C21.9 21.71 21.59 22.46 21.03 23.03C20.47 23.6 19.71 23.91 18.91 23.92C18.89 23.93 18.88 23.93 18.87 23.93ZM6.01996 4C6.00996 4 6.00996 4 6.01996 4H2.99996C2.63996 4.03 2.39996 4.15 2.22996 4.36C2.05996 4.56 1.97996 4.82 1.99996 5.09C2.30996 8 3.31996 10.84 4.91996 13.31C6.36996 15.59 8.33996 17.56 10.62 19.01C13.08 20.61 15.92 21.61 18.82 21.93C19.17 21.97 19.41 21.83 19.6 21.64C19.79 21.45 19.89 21.2 19.89 20.93V17.93C19.89 17.92 19.89 17.91 19.89 17.9C19.9 17.39 19.53 16.96 19.03 16.89C18.01 16.76 16.99 16.5 16.01 16.14C15.64 16 15.23 16.09 14.95 16.36L13.68 17.63C13.36 17.95 12.87 18.01 12.48 17.79C9.81996 16.28 7.61996 14.07 6.10996 11.42C5.88996 11.03 5.94996 10.54 6.26996 10.22L7.53996 8.95C7.80996 8.66 7.89996 8.25 7.75996 7.88C7.38996 6.9 7.13996 5.88 6.99996 4.85C6.93996 4.37 6.50996 4 6.01996 4ZM17.89 10.95C17.42 10.95 17 10.62 16.91 10.14C16.6 8.53 15.36 7.29 13.75 6.98C13.21 6.87 12.85 6.35 12.96 5.81C13.07 5.27 13.59 4.91 14.13 5.02C16.54 5.49 18.4 7.35 18.87 9.76C18.98 10.3 18.62 10.83 18.08 10.93C18.01 10.94 17.95 10.95 17.89 10.95ZM21.89 10.94C21.39 10.94 20.95 10.56 20.9 10.05C20.48 6.31 17.57 3.41 13.83 2.99C13.28 2.93 12.89 2.43 12.95 1.89C13.01 1.34 13.52 0.940001 14.05 1.01C18.73 1.53 22.36 5.16 22.88 9.83C22.94 10.38 22.55 10.87 22 10.94C21.96 10.94 21.92 10.94 21.89 10.94Z" fill="currentColor"/>
</svg>
