<svg width="24" height="24" viewBox="0 0 24 24" fill="none" xmlns="http://www.w3.org/2000/svg">
<path d="M19.87 22.93C19.79 22.93 19.7 22.93 19.62 22.92C16.39 22.57 13.25 21.45 10.54 19.69C8.01999 18.09 5.83999 15.91 4.23999 13.39C2.47999 10.67 1.35999 7.52 1.01999 4.29C0.939992 3.47 1.17999 2.69 1.69999 2.08C2.20999 1.46 2.93999 1.09 3.72999 1.01C3.81999 1 3.90999 1 3.99999 1H6.99999C7.00999 1 7.01999 1 7.02999 1C8.50999 1 9.77999 2.1 9.98999 3.58C10.11 4.47 10.33 5.34 10.64 6.18C11.05 7.27 10.79 8.51 9.95999 9.34L9.23999 10.06C10.42 11.9 11.98 13.47 13.83 14.65L14.55 13.93C15.38 13.11 16.63 12.84 17.72 13.25C18.55 13.56 19.43 13.78 20.31 13.89C21.82 14.1 22.93 15.41 22.9 16.92V19.91C22.9 20.71 22.59 21.46 22.03 22.03C21.47 22.6 20.71 22.91 19.91 22.92C19.89 22.93 19.88 22.93 19.87 22.93ZM7.01999 3C7.00999 3 7.00999 3 7.01999 3H3.99999C3.63999 3.03 3.39999 3.15 3.22999 3.36C3.05999 3.56 2.97999 3.82 2.99999 4.09C3.30999 6.99 4.31999 9.84 5.90999 12.31C7.35999 14.59 9.32999 16.56 11.61 18.01C14.07 19.61 16.91 20.61 19.81 20.93C20.16 20.97 20.4 20.83 20.59 20.64C20.78 20.45 20.88 20.2 20.88 19.93V16.93C20.88 16.92 20.88 16.91 20.88 16.9C20.89 16.39 20.52 15.96 20.02 15.89C19 15.76 17.98 15.5 17 15.14C16.63 15 16.22 15.09 15.94 15.36L14.67 16.63C14.35 16.95 13.86 17.01 13.47 16.79C10.81 15.28 8.60999 13.07 7.09999 10.42C6.88999 10.01 6.94999 9.52 7.26999 9.2L8.53999 7.93C8.80999 7.66 8.89999 7.25 8.75999 6.88C8.38999 5.9 8.13999 4.88 7.99999 3.85C7.93999 3.37 7.50999 3 7.01999 3Z" fill="black"/>
</svg>
