<svg width="24" height="24" viewBox="0 0 24 24" fill="none" xmlns="http://www.w3.org/2000/svg">
<g clip-path="url(#clip0)">
<path fill-rule="evenodd" clip-rule="evenodd" d="M23.6985 11.5564C23.6985 12.1087 23.2507 12.5564 22.6985 12.5564H7.14211C6.58983 12.5564 6.14211 12.1087 6.14211 11.5564C6.14211 11.0041 6.58983 10.5564 7.14211 10.5564H22.6985C23.2507 10.5564 23.6985 11.0041 23.6985 11.5564Z" fill="currentColor"/>
<path fill-rule="evenodd" clip-rule="evenodd" d="M23.6985 11.5564C23.6985 11.9405 23.4784 12.2907 23.1323 12.4574L4.04042 21.6498C3.67099 21.8276 3.23042 21.762 2.92891 21.4841C2.62741 21.2062 2.52607 20.7725 2.67326 20.3898L6.07073 11.5564L2.67326 2.72297C2.52607 2.34028 2.62741 1.90651 2.92891 1.62864C3.23042 1.35078 3.67099 1.28511 4.04042 1.46299L23.1323 10.6554C23.4784 10.822 23.6985 11.1722 23.6985 11.5564ZM5.44542 4.35922L8.07549 11.1974C8.16436 11.4285 8.16436 11.6843 8.07549 11.9154L5.44542 18.7535L20.3934 11.5564L5.44542 4.35922Z" fill="currentColor"/>
</g>
<defs>
<clipPath id="clip0">
<rect width="24" height="24" fill="white"/>
</clipPath>
</defs>
</svg>
