<svg width="24" height="24" viewBox="0 0 24 24" fill="none" xmlns="http://www.w3.org/2000/svg">
<g clip-path="url(#clip0)">
<path fill-rule="evenodd" clip-rule="evenodd" d="M22.7071 5.29289C23.0976 5.68342 23.0976 6.31658 22.7071 6.70711L11.7071 17.7071C11.3166 18.0976 10.6834 18.0976 10.2929 17.7071C9.90237 17.3166 9.90237 16.6834 10.2929 16.2929L21.2929 5.29289C21.6834 4.90237 22.3166 4.90237 22.7071 5.29289Z" fill="currentColor"/>
<path fill-rule="evenodd" clip-rule="evenodd" d="M17.7071 5.29289C18.0976 5.68342 18.0976 6.31658 17.7071 6.70711L6.70711 17.7071C6.31658 18.0976 5.68342 18.0976 5.29289 17.7071L0.292893 12.7071C-0.0976311 12.3166 -0.0976311 11.6834 0.292893 11.2929C0.683417 10.9024 1.31658 10.9024 1.70711 11.2929L6 15.5858L16.2929 5.29289C16.6834 4.90237 17.3166 4.90237 17.7071 5.29289Z" fill="currentColor"/>
<path fill-rule="evenodd" clip-rule="evenodd" d="M4.29289 9.29289C4.68342 8.90237 5.31658 8.90237 5.70711 9.29289L7.70711 11.2929C8.09763 11.6834 8.09763 12.3166 7.70711 12.7071C7.31658 13.0976 6.68342 13.0976 6.29289 12.7071L4.29289 10.7071C3.90237 10.3166 3.90237 9.68342 4.29289 9.29289Z" fill="currentColor"/>
</g>
<defs>
<clipPath id="clip0">
<rect width="24" height="24" fill="white"/>
</clipPath>
</defs>
</svg>
