<svg width="24" height="24" viewBox="0 0 24 24" fill="none" xmlns="http://www.w3.org/2000/svg">
<path d="M22.5899 3.52709H8.98644C8.61245 2.43733 7.56179 1.65 6.3265 1.65C5.0912 1.65 4.04054 2.43733 3.66655 3.52709H1.54315C1.04989 3.52709 0.649994 3.91941 0.649994 4.40333C0.649994 4.88725 1.04989 5.27957 1.54315 5.27957H3.66661C4.0406 6.36933 5.09126 7.15666 6.32655 7.15666C7.56185 7.15666 8.6125 6.36933 8.9865 5.27957H22.59C23.0832 5.27957 23.4831 4.88725 23.4831 4.40333C23.4831 3.91941 23.0832 3.52709 22.5899 3.52709ZM6.3265 5.40418C5.76398 5.40418 5.30633 4.95519 5.30633 4.40333C5.30633 3.85147 5.76398 3.40249 6.3265 3.40249C6.88901 3.40249 7.34666 3.85147 7.34666 4.40333C7.34666 4.95519 6.88901 5.40418 6.3265 5.40418Z" fill="#1B1B1B"/>
<path fill-rule="evenodd" clip-rule="evenodd" d="M3.5616 3.37709C3.98502 2.28029 5.06499 1.5 6.3265 1.5C7.58802 1.5 8.66798 2.28029 9.0914 3.37709H22.5899C23.1634 3.37709 23.6331 3.83387 23.6331 4.40333C23.6331 4.97278 23.1634 5.42957 22.59 5.42957H9.09146C8.66804 6.52637 7.58808 7.30666 6.32656 7.30666C5.06504 7.30666 3.98508 6.52637 3.56166 5.42957H1.54316C0.969771 5.42957 0.5 4.97278 0.5 4.40333C0.5 3.83388 0.969771 3.37709 1.54316 3.37709H3.5616ZM6.3265 1.8C5.15593 1.8 4.16184 2.54602 3.80843 3.57578L3.77366 3.67709H1.54316C1.13002 3.67709 0.8 4.00494 0.8 4.40333C0.8 4.80172 1.13002 5.12957 1.54316 5.12957H3.77372L3.80849 5.23088C4.1619 6.26064 5.15599 7.00666 6.32656 7.00666C7.49713 7.00666 8.49122 6.26064 8.84463 5.23088L8.8794 5.12957H22.59C23.0031 5.12957 23.3331 4.80172 23.3331 4.40333C23.3331 4.00495 23.0031 3.67709 22.5899 3.67709H8.87934L8.84457 3.57578C8.49116 2.54602 7.49707 1.8 6.3265 1.8ZM6.3265 3.55249C5.84412 3.55249 5.45633 3.93701 5.45633 4.40333C5.45633 4.86965 5.84412 5.25418 6.3265 5.25418C6.80889 5.25418 7.19667 4.86965 7.19667 4.40333C7.19667 3.93701 6.80889 3.55249 6.3265 3.55249ZM5.15633 4.40333C5.15633 3.76594 5.68386 3.25249 6.3265 3.25249C6.96914 3.25249 7.49667 3.76594 7.49667 4.40333C7.49667 5.04072 6.96914 5.55418 6.3265 5.55418C5.68386 5.55418 5.15633 5.04072 5.15633 4.40333Z" fill="#1B1B1B"/>
<path d="M22.5899 11.0355H20.4664C20.0925 9.94573 19.0417 9.1584 17.8065 9.1584C16.5713 9.1584 15.5206 9.94573 15.1466 11.0355H1.54315C1.04989 11.0355 0.649994 11.4278 0.649994 11.9117C0.649994 12.3956 1.04989 12.788 1.54315 12.788H15.1466C15.5206 13.8777 16.5713 14.6651 17.8066 14.6651C19.0418 14.6651 20.0925 13.8777 20.4665 12.788H22.59C23.0832 12.788 23.4831 12.3956 23.4831 11.9117C23.4831 11.4278 23.0832 11.0355 22.5899 11.0355ZM17.8066 12.9126C17.2441 12.9126 16.7864 12.4636 16.7864 11.9117C16.7864 11.3599 17.2441 10.9109 17.8066 10.9109C18.3691 10.9109 18.8267 11.3599 18.8267 11.9117C18.8267 12.4636 18.3691 12.9126 17.8066 12.9126Z" fill="#1B1B1B"/>
<path fill-rule="evenodd" clip-rule="evenodd" d="M15.0417 10.8855C15.4651 9.78869 16.545 9.0084 17.8065 9.0084C19.068 9.0084 20.148 9.78869 20.5714 10.8855H22.5899C23.1634 10.8855 23.6331 11.3423 23.6331 11.9117C23.6331 12.4812 23.1634 12.938 22.59 12.938H20.5715C20.148 14.0348 19.068 14.8151 17.8066 14.8151C16.5451 14.8151 15.4651 14.0348 15.0417 12.938H1.54316C0.969771 12.938 0.5 12.4812 0.5 11.9117C0.5 11.3423 0.969771 10.8855 1.54316 10.8855H15.0417ZM17.8065 9.3084C16.636 9.3084 15.6419 10.0544 15.2885 11.0842L15.2537 11.1855H1.54316C1.13002 11.1855 0.8 11.5133 0.8 11.9117C0.8 12.3101 1.13002 12.638 1.54316 12.638H15.2537L15.2885 12.7393C15.6419 13.769 16.6361 14.5151 17.8066 14.5151C18.9771 14.5151 19.9712 13.769 20.3246 12.7393L20.3594 12.638H22.59C23.0031 12.638 23.3331 12.3101 23.3331 11.9117C23.3331 11.5134 23.0031 11.1855 22.5899 11.1855H20.3593L20.3246 11.0842C19.9712 10.0544 18.977 9.3084 17.8065 9.3084ZM17.8066 11.0609C17.3242 11.0609 16.9364 11.4454 16.9364 11.9117C16.9364 12.3781 17.3242 12.7626 17.8066 12.7626C18.289 12.7626 18.6767 12.3781 18.6767 11.9117C18.6767 11.4454 18.289 11.0609 17.8066 11.0609ZM16.6364 11.9117C16.6364 11.2743 17.1639 10.7609 17.8066 10.7609C18.4492 10.7609 18.9767 11.2743 18.9767 11.9117C18.9767 12.5491 18.4492 13.0626 17.8066 13.0626C17.1639 13.0626 16.6364 12.5491 16.6364 11.9117Z" fill="#1B1B1B"/>
<path d="M22.5899 18.5439H12.8132C12.4392 17.4541 11.3885 16.6668 10.1532 16.6668C8.91791 16.6668 7.86725 17.4541 7.49326 18.5439H1.54315C1.04989 18.5439 0.649994 18.9362 0.649994 19.4201C0.649994 19.9041 1.04989 20.2964 1.54315 20.2964H7.49326C7.86725 21.3861 8.91791 22.1735 10.1532 22.1735C11.3885 22.1735 12.4392 21.3861 12.8132 20.2964H22.59C23.0832 20.2964 23.4831 19.9041 23.4831 19.4201C23.4831 18.9362 23.0832 18.5439 22.5899 18.5439ZM10.1532 20.421C9.59069 20.421 9.13304 19.9721 9.13304 19.4202C9.13304 18.8683 9.59069 18.4194 10.1532 18.4194C10.7157 18.4194 11.1734 18.8683 11.1734 19.4201C11.1734 19.972 10.7157 20.421 10.1532 20.421Z" fill="#1B1B1B"/>
<path fill-rule="evenodd" clip-rule="evenodd" d="M7.38831 18.3939C7.81173 17.2971 8.89169 16.5168 10.1532 16.5168C11.4147 16.5168 12.4947 17.2971 12.9181 18.3939H22.5899C23.1634 18.3939 23.6331 18.8507 23.6331 19.4201C23.6331 19.9896 23.1634 20.4464 22.59 20.4464H12.9181C12.4947 21.5432 11.4147 22.3235 10.1532 22.3235C8.89169 22.3235 7.81173 21.5432 7.38831 20.4464H1.54316C0.969771 20.4464 0.5 19.9896 0.5 19.4201C0.5 18.8507 0.969771 18.3939 1.54316 18.3939H7.38831ZM10.1532 16.8168C8.98264 16.8168 7.98855 17.5628 7.63514 18.5926L7.60037 18.6939H1.54316C1.13002 18.6939 0.8 19.0218 0.8 19.4201C0.8 19.8185 1.13002 20.1464 1.54316 20.1464H7.60037L7.63514 20.2477C7.98855 21.2775 8.98264 22.0235 10.1532 22.0235C11.3238 22.0235 12.3179 21.2775 12.6713 20.2477L12.706 20.1464H22.59C23.0031 20.1464 23.3331 19.8185 23.3331 19.4201C23.3331 19.0218 23.0031 18.6939 22.5899 18.6939H12.706L12.6713 18.5926C12.3179 17.5628 11.3238 16.8168 10.1532 16.8168ZM10.1532 18.5694C9.67082 18.5694 9.28304 18.9539 9.28304 19.4202C9.28304 19.8865 9.67082 20.271 10.1532 20.271C10.6356 20.271 11.0234 19.8865 11.0234 19.4201C11.0234 18.9538 10.6356 18.5694 10.1532 18.5694ZM8.98304 19.4202C8.98304 18.7828 9.51057 18.2694 10.1532 18.2694C10.7958 18.2694 11.3234 18.7827 11.3234 19.4201C11.3234 20.0575 10.7959 20.571 10.1532 20.571C9.51057 20.571 8.98304 20.0576 8.98304 19.4202Z" fill="#1B1B1B"/>
</svg>
