<svg width="24" height="24" viewBox="0 0 24 24" fill="none" xmlns="http://www.w3.org/2000/svg">
<path fill-rule="evenodd" clip-rule="evenodd" d="M10.4541 11.5C14.0171 11.5 17.2311 13.134 19.2641 15.759C18.3291 11.89 14.7341 9 10.4541 9C9.90109 9 9.45409 8.553 9.45409 8V6.077L4.63009 10.251L9.45409 14.463V12.5C9.45409 11.947 9.90109 11.5 10.4541 11.5ZM20.2211 21C19.7601 21 19.3581 20.685 19.2491 20.237C18.3591 16.588 15.2281 13.952 11.4541 13.553V14.674C11.4541 15.38 11.0351 16.009 10.3611 16.314C9.63009 16.647 8.77709 16.527 8.18409 16.01L3.11809 11.586C2.72509 11.242 2.50009 10.755 2.50009 10.25C2.50009 9.745 2.72509 9.258 3.11809 8.914L8.18409 4.49C8.77709 3.973 9.63009 3.853 10.3611 4.186C11.0351 4.491 11.4541 5.12 11.4541 5.826V7.044C17.0781 7.537 21.5001 12.15 21.5001 17.75C21.5001 18.56 21.3961 19.396 21.1921 20.236C21.0841 20.685 20.6831 21 20.2211 21Z" fill="#10002B"/>
</svg>
