<svg width="24" height="24" viewBox="0 0 24 24" fill="none" xmlns="http://www.w3.org/2000/svg">
<path fill-rule="evenodd" clip-rule="evenodd" d="M7.15289 1.29289C7.34043 1.10536 7.59478 1 7.86 1H16.14C16.4052 1 16.6596 1.10536 16.8471 1.29289L22.7071 7.15289C22.8946 7.34043 23 7.59478 23 7.86V16.14C23 16.4052 22.8946 16.6596 22.7071 16.8471L16.8471 22.7071C16.6596 22.8946 16.4052 23 16.14 23H7.86C7.59478 23 7.34043 22.8946 7.15289 22.7071L1.29289 16.8471C1.10536 16.6596 1 16.4052 1 16.14V7.86C1 7.59478 1.10536 7.34043 1.29289 7.15289L7.15289 1.29289ZM8.27421 3L3 8.27421V15.7258L8.27421 21H15.7258L21 15.7258V8.27421L15.7258 3H8.27421Z" fill="currentColor"/>
<path fill-rule="evenodd" clip-rule="evenodd" d="M15.7071 8.29289C16.0976 8.68342 16.0976 9.31658 15.7071 9.70711L9.70711 15.7071C9.31658 16.0976 8.68342 16.0976 8.29289 15.7071C7.90237 15.3166 7.90237 14.6834 8.29289 14.2929L14.2929 8.29289C14.6834 7.90237 15.3166 7.90237 15.7071 8.29289Z" fill="currentColor"/>
<path fill-rule="evenodd" clip-rule="evenodd" d="M8.29289 8.29289C8.68342 7.90237 9.31658 7.90237 9.70711 8.29289L15.7071 14.2929C16.0976 14.6834 16.0976 15.3166 15.7071 15.7071C15.3166 16.0976 14.6834 16.0976 14.2929 15.7071L8.29289 9.70711C7.90237 9.31658 7.90237 8.68342 8.29289 8.29289Z" fill="currentColor"/>
</svg>
