<svg width="24" height="24" viewBox="0 0 24 24" fill="none" xmlns="http://www.w3.org/2000/svg">
<g clip-path="url(#clip0)">
<path d="M11.9292 19.141C7.95932 19.141 6.14555 17.1187 6.14555 15.6354C6.14502 15.2816 6.29024 14.9431 6.54706 14.6997C6.80388 14.4563 7.14962 14.3294 7.50293 14.3489C9.2026 14.3489 8.75801 16.8984 11.9292 16.8984C13.5501 16.8984 14.5023 15.9226 14.5023 15.0059C14.5023 14.4551 14.1875 13.8256 13.1174 13.5738L9.57637 12.6807C6.73178 11.9567 6.23605 10.3751 6.23605 8.90756C6.23605 5.86231 9.02162 4.76067 11.6734 4.76067C14.1167 4.76067 17.0203 6.11018 17.0203 7.93575C17.0203 8.72264 16.3633 9.14362 15.6 9.14362C14.1482 9.14362 14.3921 7.10559 11.4728 7.10559C10.021 7.10559 9.25768 7.78625 9.25768 8.73838C9.25768 9.69051 10.3869 10.0131 11.3783 10.2295L13.9908 10.8197C16.8551 11.4649 17.6183 13.1449 17.6183 14.7541C17.6183 17.2289 15.7023 19.141 11.9252 19.141H11.9292ZM22.8905 13.9043C23.0039 13.2547 23.0605 12.5965 23.0597 11.9371C23.0735 8.62472 21.6181 5.47669 19.0857 3.34155C16.5533 1.20641 13.2046 0.303934 9.94227 0.877393C8.93954 0.300068 7.80228 -0.00256949 6.64523 1.64338e-05C4.27025 0.0145246 2.08109 1.28739 0.893605 3.34423C-0.293878 5.40108 -0.301559 7.93338 0.873422 9.99739C0.217791 13.5999 1.36626 17.2952 3.94838 19.8915C6.5305 22.4877 10.2195 23.6563 13.8256 23.0203C14.8271 23.5972 15.9629 23.8998 17.1187 23.8977C19.4924 23.8824 21.6803 22.6101 22.8675 20.5545C24.0547 18.4989 24.0635 15.968 22.8905 13.9043Z" fill="#0078D7"/>
</g>
<defs>
<clipPath id="clip0">
<rect width="24" height="24" fill="white"/>
</clipPath>
</defs>
</svg>
