<svg width="24" height="24" viewBox="0 0 24 24" fill="none" xmlns="http://www.w3.org/2000/svg">
<path d="M12 24C18.6274 24 24 18.6274 24 12C24 5.37258 18.6274 0 12 0C5.37258 0 0 5.37258 0 12C0 18.6274 5.37258 24 12 24Z" fill="url(#paint0_linear)"/>
<path d="M5.43189 11.8735C8.93014 10.3494 11.2628 9.3446 12.43 8.85913C15.7626 7.47302 16.455 7.23223 16.9064 7.2242C17.0056 7.22253 17.2276 7.24714 17.3714 7.3638C17.4928 7.46231 17.5262 7.59538 17.5422 7.68877C17.5581 7.78217 17.578 7.99493 17.5622 8.16117C17.3816 10.0587 16.6002 14.6634 16.2027 16.7886C16.0345 17.6878 15.7032 17.9893 15.3826 18.0188C14.6857 18.083 14.1566 17.5583 13.4816 17.1159C12.4255 16.4236 11.8288 15.9926 10.8036 15.317C9.61884 14.5362 10.3869 14.1071 11.0621 13.4058C11.2388 13.2223 14.3092 10.4296 14.3686 10.1762C14.376 10.1445 14.3829 10.0264 14.3128 9.96405C14.2426 9.90168 14.139 9.92301 14.0643 9.93997C13.9584 9.96401 12.2712 11.0792 9.00264 13.2855C8.52373 13.6144 8.08994 13.7746 7.70129 13.7662C7.27283 13.757 6.44864 13.524 5.83594 13.3248C5.08444 13.0805 4.48716 12.9514 4.53917 12.5365C4.56626 12.3204 4.86383 12.0994 5.43189 11.8735Z" fill="white"/>
<defs>
<linearGradient id="paint0_linear" x1="12" y1="0" x2="12" y2="23.8219" gradientUnits="userSpaceOnUse">
<stop stop-color="#2AABEE"/>
<stop offset="1" stop-color="#229ED9"/>
</linearGradient>
</defs>
</svg>
