<svg width="1411" height="478" viewBox="0 0 1411 478" fill="none" xmlns="http://www.w3.org/2000/svg">
<g clip-path="url(#clip0)">
<g clip-path="url(#clip1)">
<path d="M156.791 373.65L148.306 393.43C145.964 398.891 148.248 405.329 153.409 407.809C158.57 410.288 164.652 407.87 166.995 402.409L175.48 382.63C177.822 377.169 175.538 370.731 170.378 368.251C165.218 365.771 159.135 368.188 156.791 373.65V373.65ZM90.4692 186.718C95.6288 189.197 101.712 186.782 104.056 181.319C106.399 175.858 104.115 169.42 98.954 166.94L80.2659 157.96C75.1045 155.48 69.0225 157.897 66.6794 163.359C64.336 168.82 66.62 175.258 71.7801 177.738L90.4692 186.718ZM178.393 106.83C183.698 104.722 186.385 98.4601 184.392 92.8448L177.178 72.5093C175.185 66.894 169.269 64.051 163.963 66.1595C158.657 68.268 155.971 74.5299 157.963 80.1452L165.178 100.481C167.17 106.096 173.087 108.939 178.393 106.83ZM86.7813 283.227L67.5669 290.863C62.2612 292.971 59.5749 299.233 61.5672 304.848C63.5595 310.464 69.4761 313.307 74.7818 311.198L93.9962 303.562C99.302 301.454 101.988 295.192 99.996 289.577C98.0037 283.961 92.0871 281.118 86.7813 283.227V283.227ZM376.278 168.18L357.064 175.816C351.758 177.924 349.072 184.186 351.064 189.801C353.056 195.417 358.973 198.26 364.279 196.151L383.493 188.515C388.799 186.407 391.485 180.145 389.493 174.53C387.501 168.914 381.584 166.071 376.278 168.18V168.18ZM284.065 76.9693L275.581 96.7485C273.238 102.209 275.522 108.648 280.682 111.128C285.844 113.607 291.926 111.19 294.269 105.728L302.753 85.9485C305.096 80.4869 302.812 74.0494 297.652 71.5693C292.492 69.0899 286.408 71.5074 284.065 76.9693ZM254.302 126.502C181.23 100.706 107.035 166.909 120.758 248.018C124.163 268.14 132.594 286.624 145.142 301.471C157.044 315.554 172.407 326.171 189.571 332.171C199.701 335.713 207.368 342.98 210.607 352.11L221.024 381.469C230.97 409.502 260.61 423.744 287.097 413.218C313.584 402.692 327.042 371.322 317.096 343.29L306.717 314.037C303.411 304.718 304.636 294.114 310.168 284.176C325.988 255.751 328.842 221.915 317.995 191.342C307.077 160.57 283.862 136.936 254.302 126.502V126.502ZM297.882 350.926C303.849 367.745 295.775 386.567 279.882 392.883C263.99 399.198 246.206 390.653 240.238 373.833L236.39 362.988L294.034 340.08L297.882 350.926ZM292.484 273.151C284.23 287.979 282.222 304.832 286.861 319.728L229.138 342.667C223.4 328.221 211.428 316.936 196.009 311.546C166.957 301.387 146.379 276.207 140.961 244.187C134.382 205.298 154.126 163.692 192.892 148.286C235.39 131.398 282.801 153.939 298.78 198.978C307.436 223.374 305.141 250.41 292.484 273.151V273.151ZM360.591 292.66C355.43 290.18 349.348 292.597 347.004 298.059C344.661 303.52 346.945 309.958 352.106 312.438L370.794 321.419C375.954 323.897 382.038 321.482 384.381 316.019C386.724 310.558 384.44 304.121 379.279 301.64L360.591 292.66Z" fill="url(#paint0_linear)"/>
</g>
<path d="M547.109 355.75H559.484C566.422 355.75 571.438 353.5 574.531 349C577.719 344.5 579.312 336.25 579.312 324.25L579.172 202.047C579.172 189.203 577.578 180.062 574.391 174.625C571.297 169.188 565.906 166.469 558.219 166.469H547.109V355.75ZM509.422 385V137.5H564.969C583.156 137.5 596.328 142.891 604.484 153.672C612.734 164.359 616.859 180.156 616.859 201.062L617 312.719C617 337.656 612.875 355.938 604.625 367.562C596.375 379.188 582.734 385 563.703 385H509.422ZM700.25 387.531C676.531 387.531 661.25 378.484 654.406 360.391C650.094 348.859 647.938 333.672 647.938 314.828V236.219C647.938 193.094 665.891 171.531 701.797 171.531C720.922 171.531 734.141 177.203 741.453 188.547C748.859 199.891 752.562 216.016 752.562 236.922V282.062H685.484V323.547C685.484 338.172 686.75 347.5 689.281 351.531C691.812 355.469 695.609 357.438 700.672 357.438C705.734 357.438 709.016 356.266 710.516 353.922C713.047 349.797 714.5 345.578 714.875 341.266C715.25 336.953 715.438 331.047 715.438 323.547V304.984H752.281V316.234C752.281 335.359 750.781 349.094 747.781 357.438C744.781 365.781 741.312 371.828 737.375 375.578C729.125 383.547 716.75 387.531 700.25 387.531ZM685.344 260.266H715.438V233.266C715.438 221.734 714.5 213.484 712.625 208.516C710.844 203.453 707.141 200.922 701.516 200.922C701.422 200.922 701.375 200.922 701.375 200.922C691.625 200.922 686.375 208.375 685.625 223.281C685.438 226.094 685.344 229.75 685.344 234.25V260.266ZM803.047 385L772.531 174.062H807.688L821.328 286.281L825.969 336.766H828.781L832.719 286.141L844.391 174.062H879.266L848.75 385H803.047ZM1008.92 201.062C1008.92 227.688 1001.7 244.047 987.266 250.141C1004.89 256.047 1013.7 275.5 1013.7 308.5V314.828C1013.52 339.672 1009.16 357.578 1000.62 368.547C992.188 379.516 978.359 385 959.141 385H904.438V137.5H958.016C976.484 137.5 989.562 141.812 997.25 150.438C1004.94 158.969 1008.83 173.312 1008.92 193.469V201.062ZM942.125 355.75H955.484C962.984 355.75 968.234 353.172 971.234 348.016C974.234 342.859 975.734 333.625 975.734 320.312V300.344C975.734 287.781 974.516 278.922 972.078 273.766C969.641 268.516 964.953 265.891 958.016 265.891H942.125V355.75ZM942.125 237.625H956.047C962.516 237.625 966.734 235.562 968.703 231.438C970.766 227.312 971.797 218.828 971.797 205.984V191.078C971.703 181.516 970.391 175.141 967.859 171.953C965.328 168.672 960.969 167.031 954.781 167.031H942.125V237.625ZM1079.23 387.672C1054.2 387.672 1041.69 370.844 1041.69 337.188V174.062H1079.09V331.422C1079.09 340.141 1080.17 346.609 1082.33 350.828C1084.48 354.953 1088.52 357.016 1094.42 357.016C1105.77 357.016 1111.44 348.578 1111.44 331.703L1111.58 174.062H1148.7V385H1111.44V363.062C1105.53 379.469 1094.8 387.672 1079.23 387.672ZM1191.73 385V209.219H1175.42V182.359H1191.88V171.391C1191.88 159.578 1194.92 150.438 1201.02 143.969C1207.2 137.406 1215.41 134.125 1225.62 134.125C1235.84 134.125 1244.09 135.297 1250.38 137.641V160.984C1247.56 160.609 1244.28 160.422 1240.53 160.422C1232.84 160.422 1229 164.453 1229 172.516V182.359H1250.38V209.219H1229V385H1191.73ZM1281.45 385V209.219H1265.14V182.359H1281.59V171.391C1281.59 159.578 1284.64 150.438 1290.73 143.969C1296.92 137.406 1305.12 134.125 1315.34 134.125C1325.56 134.125 1333.81 135.297 1340.09 137.641V160.984C1337.28 160.609 1334 160.422 1330.25 160.422C1322.56 160.422 1318.72 164.453 1318.72 172.516V182.359H1340.09V209.219H1318.72V385H1281.45Z" fill="black"/>
</g>
<defs>
<linearGradient id="paint0_linear" x1="287.097" y1="413.218" x2="151.192" y2="71.2347" gradientUnits="userSpaceOnUse">
<stop stop-color="#AF60FF"/>
<stop offset="0.526042" stop-color="#84A7FF"/>
<stop offset="1" stop-color="#5EA6FF"/>
</linearGradient>
<clipPath id="clip0">
<rect width="1411" height="478" fill="white"/>
</clipPath>
<clipPath id="clip1">
<rect width="352.871" height="368.255" fill="white" transform="matrix(0.929307 -0.369309 0.334372 0.942441 0 131.319)"/>
</clipPath>
</defs>
</svg>
