<svg width="36" height="222" viewBox="0 0 36 222" fill="none" xmlns="http://www.w3.org/2000/svg">
<path d="M35.3594 0.46875L35.3594 13.1484C35.3594 16.0078 35.1406 18.1875 34.7031 19.6875C34.1094 21.7031 33.0547 23.4297 31.5391 24.8672C30.0234 26.3047 28.1641 27.3984 25.9609 28.1484C23.7734 28.8984 21.0703 29.2734 17.8516 29.2734C15.0234 29.2734 12.5859 28.9219 10.5391 28.2187C8.03906 27.3594 6.01562 26.1328 4.46875 24.5391C3.29687 23.3359 2.38281 21.7109 1.72656 19.6641C1.24219 18.1328 0.999999 16.0859 0.999999 13.5234L1 0.468748L35.3594 0.46875ZM29.5469 7.40625L6.78906 7.40625L6.78906 12.5859C6.78906 14.5234 6.89844 15.9219 7.11719 16.7812C7.39844 17.9062 7.875 18.8359 8.54687 19.5703C9.21875 20.3203 10.3203 20.9297 11.8516 21.3984C13.3984 21.8672 15.5 22.1016 18.1562 22.1016C20.8125 22.1016 22.8516 21.8672 24.2734 21.3984C25.6953 20.9297 26.8047 20.2734 27.6016 19.4297C28.3984 18.5859 28.9375 17.5156 29.2187 16.2187C29.4375 15.25 29.5469 13.3516 29.5469 10.5234L29.5469 7.40625ZM0.999998 35.1797L35.3594 35.1797L35.3594 60.6562L29.5469 60.6562L29.5469 42.1172L21.9297 42.1172L21.9297 59.3672L16.1406 59.3672L16.1406 42.1172L6.78906 42.1172L6.78906 61.3125L0.999997 61.3125L0.999998 35.1797ZM0.999997 75.9609L35.3594 63.6797L35.3594 71.2031L9.92968 79.8984L35.3594 88.3125L35.3594 95.6719L0.999996 83.3672L0.999997 75.9609ZM35.3594 99.2344L35.3594 112.969C35.3594 115.687 35.2422 117.711 35.0078 119.039C34.7891 120.383 34.3203 121.578 33.6016 122.625C32.8828 123.687 31.9219 124.57 30.7187 125.273C29.5312 125.977 28.1953 126.328 26.7109 126.328C25.1016 126.328 23.625 125.891 22.2812 125.016C20.9375 124.156 19.9297 122.984 19.2578 121.5C18.6484 123.594 17.6094 125.203 16.1406 126.328C14.6719 127.453 12.9453 128.016 10.9609 128.016C9.39843 128.016 7.87499 127.648 6.39062 126.914C4.92187 126.195 3.74218 125.203 2.85156 123.937C1.97656 122.687 1.43749 121.141 1.23437 119.297C1.10937 118.141 1.03124 115.352 0.999995 110.93L0.999996 99.2344L35.3594 99.2344ZM29.6406 106.172L21.6953 106.172L21.6953 110.719C21.6953 113.422 21.7344 115.102 21.8125 115.758C21.9531 116.945 22.3594 117.875 23.0312 118.547C23.7187 119.234 24.6172 119.578 25.7266 119.578C26.7891 119.578 27.6484 119.281 28.3047 118.687C28.9766 118.109 29.3828 117.242 29.5234 116.086C29.6016 115.398 29.6406 113.422 29.6406 110.156L29.6406 106.172ZM15.9766 106.172L6.78906 106.172L6.78906 112.594C6.78906 115.094 6.85937 116.68 6.99999 117.352C7.18749 118.383 7.64062 119.219 8.35937 119.859C9.09374 120.516 10.0703 120.844 11.2891 120.844C12.3203 120.844 13.1953 120.594 13.9141 120.094C14.6328 119.594 15.1562 118.867 15.4844 117.914C15.8125 116.977 15.9766 114.93 15.9766 111.773L15.9766 106.172ZM35.3594 133.852L35.3594 140.789L16.75 140.789C13.7969 140.789 11.8828 140.875 11.0078 141.047C9.60156 141.344 8.46874 142.047 7.60937 143.156C6.76562 144.281 6.34374 145.812 6.34374 147.75C6.34374 149.719 6.74218 151.203 7.53906 152.203C8.35156 153.203 9.34374 153.805 10.5156 154.008C11.6875 154.211 13.6328 154.312 16.3516 154.312L35.3594 154.312L35.3594 161.25L17.3125 161.25C13.1875 161.25 10.2734 161.062 8.57031 160.687C6.86718 160.312 5.42968 159.617 4.25781 158.602C3.08593 157.602 2.14843 156.258 1.44531 154.57C0.757806 152.883 0.414056 150.68 0.414056 147.961C0.414056 144.68 0.789056 142.187 1.53906 140.484C2.30468 138.797 3.28906 137.461 4.49218 136.477C5.71093 135.492 6.98437 134.844 8.31249 134.531C10.2812 134.078 13.1875 133.852 17.0312 133.852L35.3594 133.852ZM0.999992 168.633L35.3594 168.633L35.3594 192.187L29.5469 192.187L29.5469 175.57L21.4141 175.57L21.4141 189.914L15.6016 189.914L15.6016 175.57L0.999992 175.57L0.999992 168.633ZM0.999991 197.977L35.3594 197.977L35.3594 221.531L29.5469 221.531L29.5469 204.914L21.4141 204.914L21.4141 219.258L15.6016 219.258L15.6016 204.914L0.999991 204.914L0.999991 197.977Z" fill="white"/>
</svg>
