<svg width="24" height="24" viewBox="0 0 24 24" fill="none" xmlns="http://www.w3.org/2000/svg">
<g>
 <path d="M11.9292 19.141C7.95932 19.141 6.14555 17.1187 6.14555 15.6354C6.14502 15.2815 6.29024 14.9431 6.54706 14.6997C6.80388 14.4563 7.14962 14.3294 7.50293 14.3488C9.2026 14.3488 8.75801 16.8983 11.9292 16.8983C13.5501 16.8983 14.5023 15.9226 14.5023 15.0059C14.5023 14.4551 14.1875 13.8256 13.1174 13.5738L9.57637 12.6806C6.73178 11.9567 6.23605 10.3751 6.23605 8.90753C6.23605 5.86228 9.02162 4.76064 11.6734 4.76064C14.1167 4.76064 17.0203 6.11015 17.0203 7.93572C17.0203 8.72261 16.3633 9.14359 15.6 9.14359C14.1482 9.14359 14.3921 7.10556 11.4728 7.10556C10.021 7.10556 9.25768 7.78621 9.25768 8.73835C9.25768 9.69048 10.3869 10.0131 11.3783 10.2295L13.9908 10.8197C16.8551 11.4649 17.6183 13.1449 17.6183 14.7541C17.6183 17.2288 15.7023 19.141 11.9252 19.141H11.9292ZM22.8905 13.9042C23.0039 13.2547 23.0605 12.5964 23.0597 11.937C23.0735 8.62469 21.6181 5.47666 19.0857 3.34152C16.5533 1.20638 13.2046 0.303904 9.94228 0.877363C8.93954 0.300038 7.80228 -0.00260001 6.64523 -1.40838e-05C4.27025 0.0144941 2.08109 1.28736 0.893605 3.3442C-0.293878 5.40105 -0.301559 7.93335 0.873422 9.99736C0.217791 13.5999 1.36626 17.2952 3.94838 19.8914C6.5305 22.4877 10.2195 23.6563 13.8256 23.0203C14.8271 23.5971 15.9629 23.8998 17.1187 23.8977C19.4924 23.8824 21.6803 22.6101 22.8675 20.5545C24.0547 18.4989 24.0635 15.968 22.8905 13.9042Z" fill="#0078D7"/>
</g>
</svg>
