<svg width="24" height="24" viewBox="0 0 24 24" fill="none" xmlns="http://www.w3.org/2000/svg">
<path d="M20.9616 11.1838C20.9251 10.7966 20.6 10.4999 20.2111 10.4999H12.7501C12.3359 10.4999 12 10.8357 12 11.25V12.7499C12 13.1641 12.3358 13.5 12.7501 13.5H17.8101C17.1451 16.0849 14.795 18 12 18C8.46767 18 5.64141 14.9364 6.03713 11.325C6.31196 8.81671 8.70454 6.37467 11.207 6.05128C12.9241 5.82936 14.5245 6.34098 15.739 7.31174C16.0387 7.55122 16.4672 7.5328 16.7384 7.26156L17.8036 6.19637C18.1135 5.88646 18.097 5.37295 17.7606 5.09197C16.1984 3.78667 14.1887 3 12 3C6.70017 3 2.45066 7.61258 3.05791 13.0316C3.52586 17.2071 6.93907 20.5589 11.1217 20.958C15.954 21.4191 20.1137 18.0268 20.87 13.5C20.955 13.01 21 12.51 21 12C21 11.725 20.9869 11.453 20.9616 11.1838Z" fill="black"/>
</svg>
