<svg width="24" height="24" viewBox="0 0 24 24" fill="none" xmlns="http://www.w3.org/2000/svg">
<path fill-rule="evenodd" clip-rule="evenodd" d="M16 9C14.6739 9 13.4021 9.52678 12.4645 10.4645C11.5268 11.4021 11 12.6739 11 14V20H13V14C13 13.2043 13.3161 12.4413 13.8787 11.8787C14.4413 11.3161 15.2043 11 16 11C16.7957 11 17.5587 11.3161 18.1213 11.8787C18.6839 12.4413 19 13.2043 19 14V20H21V14C21 12.6739 20.4732 11.4021 19.5355 10.4645C18.5979 9.52678 17.3261 9 16 9ZM16 7C14.1435 7 12.363 7.7375 11.0503 9.05025C9.7375 10.363 9 12.1435 9 14V21C9 21.5523 9.44772 22 10 22H14C14.5523 22 15 21.5523 15 21V14C15 13.7348 15.1054 13.4804 15.2929 13.2929C15.4804 13.1054 15.7348 13 16 13C16.2652 13 16.5196 13.1054 16.7071 13.2929C16.8946 13.4804 17 13.7348 17 14V21C17 21.5523 17.4477 22 18 22H22C22.5523 22 23 21.5523 23 21V14C23 12.1435 22.2625 10.363 20.9497 9.05025C19.637 7.7375 17.8565 7 16 7Z" fill="#181818"/>
<path fill-rule="evenodd" clip-rule="evenodd" d="M1 9C1 8.44772 1.44772 8 2 8H6C6.55228 8 7 8.44772 7 9V21C7 21.5523 6.55228 22 6 22H2C1.44772 22 1 21.5523 1 21V9ZM3 10V20H5V10H3Z" fill="#181818"/>
<path fill-rule="evenodd" clip-rule="evenodd" d="M4 3C3.44772 3 3 3.44772 3 4C3 4.55228 3.44772 5 4 5C4.55228 5 5 4.55228 5 4C5 3.44772 4.55228 3 4 3ZM1 4C1 2.34315 2.34315 1 4 1C5.65685 1 7 2.34315 7 4C7 5.65685 5.65685 7 4 7C2.34315 7 1 5.65685 1 4Z" fill="#181818"/>
</svg>
