<svg width="24" height="24" viewBox="0 0 24 24" fill="none" xmlns="http://www.w3.org/2000/svg">
<path d="M12 2C6.48599 2 2 6.48592 2 11.9999C2 17.514 6.48599 22 12 22C12.4126 22 12.747 21.6656 12.747 21.253C12.747 20.8405 12.4126 20.5061 12 20.5061C7.30974 20.5061 3.49393 16.6902 3.49393 11.9999C3.49393 7.30966 7.30974 3.49391 12 3.49391C16.6903 3.49391 20.5061 7.30966 20.5061 11.9999V14.3134C20.5061 15.1771 19.8033 15.8797 18.9395 15.8797C18.0758 15.8797 17.3732 15.1771 17.3732 14.3134V11.9999C17.3732 9.03692 14.9628 6.62645 11.9999 6.62645C9.03693 6.62645 6.62642 9.03692 6.62642 11.9999C6.62642 14.963 9.03693 17.3737 11.9999 17.3737C13.6443 17.3737 15.1177 16.6304 16.1041 15.4629C16.5595 16.5822 17.6585 17.3737 18.9395 17.3737C20.627 17.3737 22 16.0008 22 14.3134V11.9999C22 6.48592 17.514 2 12 2ZM12 15.8797C9.86079 15.8797 8.12045 14.1392 8.12045 11.9999C8.12045 9.86067 9.86088 8.12036 12 8.12036C14.1391 8.12036 15.8793 9.86067 15.8793 11.9999C15.8793 14.1392 14.1391 15.8797 12 15.8797Z" fill="black"/>
<path fill-rule="evenodd" clip-rule="evenodd" d="M1.5 11.9999C1.5 6.20977 6.20985 1.5 12 1.5C17.7901 1.5 22.5 6.20977 22.5 11.9999V14.3134C22.5 16.277 20.9031 17.8737 18.9395 17.8737C17.7123 17.8737 16.6302 17.25 15.9904 16.3049C14.9429 17.2769 13.5403 17.8737 11.9999 17.8737C8.76076 17.8737 6.12642 15.2391 6.12642 11.9999C6.12642 8.76078 8.76079 6.12645 11.9999 6.12645C15.2389 6.12645 17.8732 8.76079 17.8732 11.9999V14.3134C17.8732 14.901 18.352 15.3797 18.9395 15.3797C19.5272 15.3797 20.0061 14.9009 20.0061 14.3134V11.9999C20.0061 7.58581 16.4141 3.99391 12 3.99391C7.58588 3.99391 3.99393 7.58581 3.99393 11.9999C3.99393 16.4141 7.58589 20.0061 12 20.0061C12.6888 20.0061 13.247 20.5644 13.247 21.253C13.247 21.9417 12.6888 22.5 12 22.5C6.20984 22.5 1.5 17.7901 1.5 11.9999ZM12 2.5C6.76212 2.5 2.5 6.76207 2.5 11.9999C2.5 17.2378 6.76214 21.5 12 21.5C12.1364 21.5 12.247 21.3895 12.247 21.253C12.247 21.1166 12.1364 21.0061 12 21.0061C7.03359 21.0061 2.99393 16.9664 2.99393 11.9999C2.99393 7.03351 7.03361 2.99391 12 2.99391C16.9664 2.99391 21.0061 7.03351 21.0061 11.9999V14.3134C21.0061 15.4533 20.0794 16.3797 18.9395 16.3797C17.7997 16.3797 16.8732 15.4533 16.8732 14.3134V11.9999C16.8732 9.31306 14.6866 7.12645 11.9999 7.12645C9.31307 7.12645 7.12642 9.31307 7.12642 11.9999C7.12642 14.6869 9.3131 16.8737 11.9999 16.8737C13.4902 16.8737 14.8263 16.2006 15.7222 15.1402L16.2557 14.5088L16.5673 15.2745C16.9489 16.2126 17.8696 16.8737 18.9395 16.8737C20.3509 16.8737 21.5 15.7247 21.5 14.3134V11.9999C21.5 6.76207 17.2379 2.5 12 2.5ZM12 8.62036C10.137 8.62036 8.62045 10.1368 8.62045 11.9999C8.62045 13.8631 10.137 15.3797 12 15.3797C13.8629 15.3797 15.3793 13.8632 15.3793 11.9999C15.3793 10.1368 13.863 8.62036 12 8.62036ZM7.62045 11.9999C7.62045 9.58451 9.58476 7.62036 12 7.62036C14.4153 7.62036 16.3793 9.58454 16.3793 11.9999C16.3793 14.4153 14.4153 16.3797 12 16.3797C9.5846 16.3797 7.62045 14.4153 7.62045 11.9999Z" fill="black"/>
</svg>
