<svg width="24" height="24" viewBox="0 0 24 24" fill="none" xmlns="http://www.w3.org/2000/svg">
<path d="M5.20627 13.2383C4.63406 14.3504 5.28375 14.882 6.7661 15.7901C8.02628 16.5598 9.76719 16.8413 10.8855 16.9539C10.4272 17.3895 12.5274 15.3924 6.47859 21.1447C5.19601 22.3602 7.26083 24.3102 8.54248 23.1206L12.0122 19.8121C13.3405 21.0755 14.6137 22.2863 15.4819 23.1252C16.7645 24.3194 18.8283 22.386 17.5598 21.1493C17.4646 21.0598 12.8579 16.6909 13.1389 16.9585C14.2712 16.8459 15.9859 16.5478 17.2312 15.7947L17.2303 15.7938C18.7126 14.8811 19.3623 14.3504 18.7985 13.2383C18.4578 12.6071 17.5392 12.0792 16.3164 12.9919C16.3164 12.9919 14.6651 14.2424 12.0019 14.2424C9.3378 14.2424 7.68743 12.9919 7.68743 12.9919C6.46552 12.0746 5.54326 12.6071 5.20627 13.2383Z" fill="black"/>
<path d="M12.0005 12.5C15.3032 12.5 18 9.81379 18 6.50692C18 3.18621 15.3032 0.5 12.0005 0.5C8.69684 0.5 6 3.18621 6 6.50692C6 9.81379 8.69684 12.5 12.0005 12.5ZM12.0005 3.54299C13.6233 3.54299 14.9471 4.86831 14.9471 6.50692C14.9471 8.13169 13.6233 9.45701 12.0005 9.45701C10.3776 9.45701 9.05389 8.13169 9.05389 6.50692C9.05294 4.86732 10.3767 3.54299 12.0005 3.54299Z" fill="black"/>
</svg>
