<svg width="24" height="24" viewBox="0 0 24 24" fill="none" xmlns="http://www.w3.org/2000/svg">
<g clip-path="url(#clip0)">
<path d="M23.006 16.5493C22.2914 15.6658 21.4505 14.9118 20.6549 14.1112C19.9371 13.3895 19.8918 12.9709 20.4688 12.1379C21.0986 11.2289 21.7758 10.3546 22.4113 9.44966C23.0045 8.6039 23.6108 7.76045 23.923 6.7478C24.121 6.10354 23.9459 5.81898 23.3049 5.70617C23.1945 5.68643 23.0803 5.68541 22.9679 5.68541L19.1653 5.68079C18.697 5.67362 18.4381 5.88409 18.2724 6.31197C18.0488 6.89034 17.8183 7.46819 17.5519 8.02631C16.9475 9.29174 16.2725 10.5149 15.3262 11.5506C15.1175 11.779 14.8867 12.0677 14.538 11.9487C14.1017 11.7847 13.9731 11.0438 13.9804 10.7933L13.9766 6.26916C13.8921 5.62285 13.753 5.3347 13.1305 5.20908L9.18041 5.20985C8.65313 5.20985 8.38875 5.41981 8.1072 5.75975C7.94479 5.95613 7.89579 6.08355 8.22957 6.14867C8.88518 6.27685 9.25452 6.71421 9.35252 7.39179C9.5097 8.47444 9.49876 9.56144 9.40823 10.6484C9.38162 10.9658 9.32864 11.2824 9.20652 11.5788C9.01551 12.0446 8.7071 12.1395 8.30195 11.8529C7.93509 11.5934 7.67742 11.2273 7.42523 10.8597C6.47787 9.47991 5.72203 7.99195 5.10571 6.42836C4.92763 5.97664 4.62047 5.70284 4.15612 5.69541C3.01526 5.67669 1.87416 5.67361 0.733301 5.69643C0.0468473 5.70976 -0.157845 6.0533 0.12171 6.69473C1.36429 9.54375 2.74739 12.3136 4.55282 14.8367C5.47978 16.1316 6.54403 17.2748 7.91892 18.0849C9.47712 19.0032 11.1545 19.2796 12.9211 19.1945C13.7483 19.1545 13.9968 18.9327 14.0351 18.0829C14.0609 17.5014 14.1249 16.9233 14.4032 16.4008C14.6763 15.8881 15.0899 15.7904 15.5667 16.1093C15.8052 16.2691 16.0061 16.4724 16.1959 16.6867C16.6615 17.2117 17.1104 17.7527 17.5937 18.26C18.1998 18.8958 18.9178 19.2714 19.8207 19.1947L23.3156 19.1955C23.8787 19.1576 24.1707 18.4459 23.8474 17.798C23.6203 17.3443 23.3223 16.9402 23.006 16.5493Z" fill="black"/>
</g>
<defs>
<clipPath id="clip0">
<rect width="24" height="24" fill="white"/>
</clipPath>
</defs>
</svg>
