<svg width="24" height="24" viewBox="0 0 24 24" fill="none" xmlns="http://www.w3.org/2000/svg">
<path d="M15.1181 2H12.3312C9.50783 2 6.65887 4.01957 6.65887 8.53147C6.65887 10.8685 7.6814 12.6887 9.55583 13.7239L6.12509 19.739C5.96243 20.0235 5.95818 20.3459 6.11368 20.6014C6.2655 20.851 6.54313 21 6.85605 21H8.59153C8.98578 21 9.29318 20.8154 9.4406 20.492L12.6573 14.3975H12.8921V20.2404C12.8921 20.6522 13.2508 21 13.6753 21H15.1914C15.6676 21 16 20.678 16 20.2168V2.83136C16.0001 2.34189 15.6374 2 15.1181 2ZM12.8921 11.6902H12.4779C10.8722 11.6902 9.91353 10.4206 9.91353 8.29386C9.91353 5.64948 11.1245 4.70731 12.2579 4.70731H12.8921V11.6902Z" fill="#D7143A"/>
</svg>
