<svg width="24" height="24" viewBox="0 0 24 24" fill="none" xmlns="http://www.w3.org/2000/svg">
<g clip-path="url(#clip0)">
<path fill-rule="evenodd" clip-rule="evenodd" d="M11.9998 3C11.9999 3 12 3 12 4L11.9999 5L11.9245 5.00011C11.8745 5.00022 11.8005 5.00044 11.7057 5.00089C11.5159 5.00178 11.2425 5.00356 10.9088 5.00713C10.241 5.01427 9.33394 5.02855 8.37466 5.05706C7.41379 5.08561 6.40856 5.12821 5.54208 5.19141C4.65397 5.25619 3.99408 5.33761 3.66531 5.42419C3.36661 5.51 3.09554 5.67253 2.8791 5.89566C2.66797 6.11333 2.51606 6.38119 2.43757 6.67375C2.13803 8.34737 1.99155 10.0448 1.99995 11.7451L2 11.7563C1.98928 13.4635 2.13467 15.1681 2.43444 16.8487C2.52106 17.1264 2.67449 17.3788 2.88154 17.5837C3.09845 17.7984 3.3669 17.9537 3.6611 18.0347C3.98842 18.1217 4.65016 18.2035 5.54208 18.2686C6.40856 18.3318 7.41379 18.3744 8.37466 18.4029C9.33394 18.4314 10.241 18.4457 10.9088 18.4529C11.2425 18.4564 11.5159 18.4582 11.7057 18.4591C11.8005 18.4596 11.8745 18.4598 11.9245 18.4599H12.0754C12.1255 18.4598 12.1994 18.4596 12.2943 18.4591C12.484 18.4582 12.7575 18.4564 13.0911 18.4529C13.7589 18.4457 14.666 18.4314 15.6253 18.4029C16.5861 18.3744 17.5914 18.3318 18.4578 18.2686C19.346 18.2038 20.0058 18.1224 20.3346 18.0358C20.6333 17.95 20.9044 17.7875 21.1208 17.5643C21.332 17.3467 21.4839 17.0788 21.5624 16.7863C21.8596 15.1253 22.006 13.4409 22 11.7536L21.9999 11.7437C22.0107 10.0306 21.8642 8.32008 21.5624 6.63377C21.4839 6.3412 21.332 6.07333 21.1208 5.85566C20.9069 5.63509 20.6395 5.47373 20.3449 5.38717C20.0049 5.3072 19.3426 5.23348 18.4641 5.17498C17.5959 5.11716 16.5893 5.07822 15.6278 5.05213C14.6679 5.02609 13.7602 5.01304 13.0921 5.00651C12.7582 5.00325 12.4846 5.00162 12.2947 5.00081L12.0756 5.0001L11.9999 5L12 4C12 3 11.9999 3 11.9998 3L12.0797 3.0001C12.1312 3.00021 12.2067 3.00042 12.3032 3.00083C12.4963 3.00166 12.7736 3.00331 13.1116 3.00661C13.7872 3.01321 14.7071 3.02641 15.6821 3.05287C16.6556 3.07928 17.6915 3.11909 18.597 3.1794C19.4767 3.23798 20.3115 3.32017 20.8372 3.44854C20.8489 3.45141 20.8606 3.45448 20.8722 3.45777C21.5123 3.63886 22.0932 3.98566 22.5564 4.46315C23.0196 4.94063 23.3485 5.53189 23.51 6.17719L22.54 6.42L23.5241 6.24249C23.852 8.06021 24.0113 9.90432 24 11.7513C24.0062 13.5707 23.8469 15.3869 23.5241 17.1774C23.5201 17.1994 23.5154 17.2212 23.51 17.2428C23.3485 17.8881 23.0196 18.4794 22.5564 18.9569C22.0932 19.4343 21.5123 19.7811 20.8722 19.9622L20.8583 19.966C20.3247 20.1088 19.4826 20.1992 18.6033 20.2633C17.6961 20.3295 16.6588 20.3731 15.6847 20.4021C14.7089 20.4311 13.7885 20.4455 13.1125 20.4528C12.7743 20.4564 12.4969 20.4582 12.3036 20.4591C12.207 20.4595 12.1314 20.4598 12.0799 20.4599L12.0004 20.46L11.9201 20.4599C11.8685 20.4598 11.7929 20.4595 11.6963 20.4591C11.5031 20.4582 11.2256 20.4564 10.8874 20.4528C10.2114 20.4455 9.29099 20.4311 8.31526 20.4021C7.34113 20.3731 6.30386 20.3295 5.39659 20.2633C4.51729 20.1992 3.67525 20.1088 3.1416 19.966L3.13604 19.9646C2.50897 19.793 1.93675 19.4626 1.47467 19.0052C1.01259 18.5479 0.676269 17.9792 0.498203 17.3539C0.489164 17.3222 0.481701 17.29 0.475843 17.2575C0.148004 15.44 -0.0113041 13.5961 -5.36995e-05 11.7493C-0.00876796 9.91636 0.150527 8.08643 0.475836 6.28253C0.47979 6.2606 0.484476 6.23881 0.489887 6.21719C0.651405 5.57189 0.980357 4.98063 1.44352 4.50315C1.90668 4.02566 2.48764 3.67886 3.12773 3.49777L3.1416 3.49395C3.67525 3.35123 4.51729 3.26085 5.39659 3.19671C6.30386 3.13054 7.34113 3.08689 8.31526 3.05794C9.29099 3.02895 10.2114 3.01448 10.8874 3.00724C11.2256 3.00363 11.5031 3.00182 11.6963 3.00091C11.7929 3.00046 11.8685 3.00023 11.9201 3.00011L11.9998 3Z" fill="#181818"/>
<path fill-rule="evenodd" clip-rule="evenodd" d="M9.24718 7.61562C9.55499 7.43656 9.9348 7.43471 10.2443 7.61075L15.9943 10.8807C16.3069 11.0585 16.5 11.3904 16.5 11.75C16.5 12.1096 16.3069 12.4415 15.9943 12.6193L10.2443 15.8893C9.9348 16.0653 9.55499 16.0635 9.24718 15.8844C8.93937 15.7053 8.75 15.3761 8.75 15.02V8.48001C8.75 8.12391 8.93937 7.79467 9.24718 7.61562ZM10.75 10.1991V13.3009L13.4771 11.75L10.75 10.1991Z" fill="#181818"/>
</g>
<defs>
<clipPath id="clip0">
<rect width="24" height="24" fill="white"/>
</clipPath>
</defs>
</svg>
