<svg width="24" height="24" viewBox="0 0 24 24" fill="none" xmlns="http://www.w3.org/2000/svg">
<path d="M20.4871 3.51288C18.2201 1.2459 15.2037 0 12 0C8.79625 0 5.77986 1.2459 3.51288 3.51288C1.2459 5.77986 0 8.79625 0 12C0 14.829 1.00234 17.5738 2.82436 19.733C3.25059 20.2389 3.71897 20.7073 4.22014 21.1335C4.22482 21.1382 4.23419 21.1429 4.23888 21.1475C6.40281 22.9836 9.15691 23.9953 12 23.9953C14.829 23.9953 17.5738 22.993 19.733 21.171L19.7377 21.1663C19.7424 21.1616 19.7518 21.1569 19.7564 21.1522C19.7611 21.1475 19.7705 21.1429 19.7752 21.1335C19.7752 21.1335 19.7799 21.1335 19.7799 21.1288C20.281 20.7026 20.7494 20.2342 21.171 19.7283C22.993 17.5691 23.9953 14.8244 23.9953 11.9953C24 8.79625 22.7541 5.77986 20.4871 3.51288ZM9.01171 7.50351C9.01171 5.8548 10.3513 4.51522 12 4.51522C13.6487 4.51522 14.9883 5.8548 14.9883 7.50351C14.9883 9.15222 13.6487 10.4918 12 10.4918C10.3513 10.4918 9.01171 9.15222 9.01171 7.50351ZM5.26464 18.7447C5.26464 15.082 8.24356 12.0609 11.9016 12.0094H12H12.0984C15.7564 12.0609 18.7354 15.082 18.7354 18.7447C18.7354 19.2178 18.6838 19.6909 18.5855 20.1546C16.726 21.6581 14.3981 22.4824 12 22.4824C9.60187 22.4824 7.274 21.6581 5.41452 20.1546C5.31616 19.6909 5.26464 19.2178 5.26464 18.7447ZM17.8735 12.9461C17.007 12.0656 15.9719 11.4052 14.8478 10.993C15.8595 10.1639 16.5059 8.90866 16.5059 7.50351C16.5059 5.02108 14.4824 2.99766 12 2.99766C9.51756 2.99766 7.49414 5.02108 7.49414 7.50351C7.49414 8.90866 8.14051 10.1686 9.15222 10.993C8.02342 11.4052 6.99297 12.0656 6.12646 12.9461C4.65574 14.4356 3.82201 16.3888 3.75176 18.4684C2.30913 16.6276 1.51756 14.3466 1.51756 12C1.51756 6.22014 6.22014 1.51756 12 1.51756C17.7799 1.51756 22.4824 6.22014 22.4824 12C22.4824 14.3466 21.6909 16.6323 20.2482 18.4684C20.178 16.3888 19.3443 14.4356 17.8735 12.9461Z" fill="black"/>
</svg>
