<svg width="20" height="20" viewBox="0 0 20 20" fill="none" xmlns="http://www.w3.org/2000/svg">
<path fill-rule="evenodd" clip-rule="evenodd" d="M5.05038 3.63579C5.4409 4.02631 5.4409 4.65948 5.05038 5.05C2.31671 7.78367 2.3167 12.2158 5.05037 14.9495C5.4409 15.34 5.4409 15.9732 5.05037 16.3637C4.65985 16.7542 4.02668 16.7542 3.63616 16.3637C0.121442 12.849 0.121443 7.15051 3.63616 3.63579C4.02669 3.24526 4.65985 3.24526 5.05038 3.63579ZM14.9499 3.63602C15.3404 3.2455 15.9736 3.2455 16.3641 3.63602C19.8788 7.15074 19.8788 12.8492 16.3641 16.3639C15.9736 16.7545 15.3404 16.7545 14.9499 16.3639C14.5594 15.9734 14.5594 15.3403 14.9499 14.9497C17.6836 12.2161 17.6836 7.78391 14.9499 5.05023C14.5594 4.65971 14.5594 4.02655 14.9499 3.63602ZM7.87881 6.46422C8.26933 6.85474 8.26933 7.48791 7.87881 7.87843C6.70724 9.05 6.70723 10.9495 7.87881 12.1211C8.26933 12.5116 8.26933 13.1448 7.87881 13.5353C7.48828 13.9258 6.85512 13.9258 6.46459 13.5353C4.51197 11.5827 4.51197 8.41684 6.46459 6.46422C6.85512 6.07369 7.48828 6.07369 7.87881 6.46422ZM12.1215 6.46445C12.512 6.07392 13.1451 6.07392 13.5357 6.46445C15.4883 8.41707 15.4883 11.5829 13.5357 13.5355C13.1451 13.926 12.512 13.926 12.1215 13.5355C11.7309 13.145 11.7309 12.5118 12.1215 12.1213C13.293 10.9497 13.293 9.05023 12.1215 7.87866C11.7309 7.48814 11.7309 6.85497 12.1215 6.46445ZM10.0001 8.99998C10.5524 8.99998 11.0001 9.4477 11.0001 9.99998V10.01C11.0001 10.5623 10.5524 11.01 10.0001 11.01C9.44784 11.01 9.00012 10.5623 9.00012 10.01V9.99998C9.00012 9.4477 9.44784 8.99998 10.0001 8.99998Z" fill="#111827"/>
</svg>
